<?xml version="1.0" encoding="UTF-8" standalone="no"?>
<!-- Created with Inkscape (http://www.inkscape.org/) -->
<svg
   xmlns:dc="http://purl.org/dc/elements/1.1/"
   xmlns:cc="http://creativecommons.org/ns#"
   xmlns:rdf="http://www.w3.org/1999/02/22-rdf-syntax-ns#"
   xmlns:svg="http://www.w3.org/2000/svg"
   xmlns="http://www.w3.org/2000/svg"
   xmlns:xlink="http://www.w3.org/1999/xlink"
   xmlns:sodipodi="http://sodipodi.sourceforge.net/DTD/sodipodi-0.dtd"
   xmlns:inkscape="http://www.inkscape.org/namespaces/inkscape"
   width="700"
   height="700"
   id="svg2812"
   sodipodi:version="0.32"
   inkscape:version="0.46"
   version="1.0"
   sodipodi:docname="kpz08-joaclint.svg"
   inkscape:output_extension="org.inkscape.output.svg.inkscape"
   inkscape:export-filename="/home/kaze/Documents/KompoZer/icons/svg/logo_kompozer/kpz08-joaquin-16px.png"
   inkscape:export-xdpi="2.057143"
   inkscape:export-ydpi="2.057143">
  <defs
     id="defs2814">
    <linearGradient
       id="linearGradient3714"
       inkscape:collect="always">
      <stop
         id="stop3716"
         offset="0"
         style="stop-color:#ffffff;stop-opacity:1;" />
      <stop
         id="stop3718"
         offset="1"
         style="stop-color:#ffffff;stop-opacity:0;" />
    </linearGradient>
    <linearGradient
       gradientTransform="translate(-998.9043,45.797892)"
       y2="369.84424"
       x2="3310.2007"
       y1="193.06755"
       x1="3031.7656"
       gradientUnits="userSpaceOnUse"
       id="linearGradient3725"
       xlink:href="#linearGradient3714"
       inkscape:collect="always" />
    <linearGradient
       id="linearGradient3595">
      <stop
         id="stop3597"
         offset="0"
         style="stop-color:#63220f;stop-opacity:1;" />
      <stop
         style="stop-color:#711107;stop-opacity:1;"
         offset="0.5"
         id="stop3603" />
      <stop
         id="stop3605"
         offset="0.94999999"
         style="stop-color:#63220f;stop-opacity:1" />
      <stop
         id="stop3599"
         offset="1"
         style="stop-color:#2b2014;stop-opacity:1" />
    </linearGradient>
    <radialGradient
       gradientUnits="userSpaceOnUse"
       gradientTransform="matrix(1.9235854,1.1863505,-1.4772521,2.3952623,-3092.7663,-3644.6948)"
       r="196.68087"
       fy="291.09601"
       fx="2692.6335"
       cy="291.09601"
       cx="2692.6335"
       id="radialGradient3601"
       xlink:href="#linearGradient3595"
       inkscape:collect="always" />
    <linearGradient
       id="linearGradient3925"
       inkscape:collect="always">
      <stop
         id="stop3927"
         offset="0"
         style="stop-color:#3a3204;stop-opacity:1" />
      <stop
         id="stop3929"
         offset="1"
         style="stop-color:#aa8f00;stop-opacity:1" />
    </linearGradient>
    <radialGradient
       r="70.120392"
       fy="554.65344"
       fx="661.41833"
       cy="554.65344"
       cx="661.41833"
       gradientTransform="matrix(2.8539077,-0.4364077,1.2940248,8.4568759,-522.3293,-1748.8054)"
       gradientUnits="userSpaceOnUse"
       id="radialGradient3593"
       xlink:href="#linearGradient3925"
       inkscape:collect="always" />
    <filter
       height="1.1673026"
       y="-0.083651312"
       width="1.2710413"
       x="-0.13552067"
       id="filter3689"
       inkscape:collect="always">
      <feGaussianBlur
         id="feGaussianBlur3691"
         stdDeviation="21.912906"
         inkscape:collect="always" />
    </filter>
    <clipPath
       id="clipPath3695"
       clipPathUnits="userSpaceOnUse">
      <path
         sodipodi:type="arc"
         style="opacity:1;fill:url(#radialGradient3699);fill-opacity:1;stroke:none;stroke-width:16.68700027;stroke-linejoin:round;stroke-miterlimit:4;stroke-dasharray:none;stroke-opacity:1"
         id="path3697"
         sodipodi:cx="114.28571"
         sodipodi:cy="-116.20924"
         sodipodi:rx="300"
         sodipodi:ry="300"
         d="M 414.28571,-116.20924 A 300,300 0 1 1 -185.71429,-116.20924 A 300,300 0 1 1 414.28571,-116.20924 z"
         transform="matrix(1.0654523,0,0,1.0661205,2765.1432,512.27121)" />
    </clipPath>
    <filter
       height="2.4866734"
       y="-0.7433367"
       width="2.4866734"
       x="-0.7433367"
       id="filter3943"
       inkscape:collect="always">
      <feGaussianBlur
         id="feGaussianBlur3945"
         stdDeviation="33.62542"
         inkscape:collect="always" />
    </filter>
    <clipPath
       id="clipPath3957"
       clipPathUnits="userSpaceOnUse">
      <path
         sodipodi:type="arc"
         style="opacity:1;fill:url(#radialGradient3961);fill-opacity:1;stroke:none;stroke-width:16.68700027;stroke-linejoin:round;stroke-miterlimit:4;stroke-dasharray:none;stroke-opacity:1"
         id="path3959"
         sodipodi:cx="114.28571"
         sodipodi:cy="-116.20924"
         sodipodi:rx="300"
         sodipodi:ry="300"
         d="M 414.28571,-116.20924 A 300,300 0 1 1 -185.71429,-116.20924 A 300,300 0 1 1 414.28571,-116.20924 z"
         transform="matrix(0.5953998,0,0,0.9433077,2355.0119,735.995)" />
    </clipPath>
    <linearGradient
       id="linearGradient3947"
       inkscape:collect="always">
      <stop
         id="stop3949"
         offset="0"
         style="stop-color:#e1e5ee;stop-opacity:1" />
      <stop
         id="stop3951"
         offset="1"
         style="stop-color:#14e5e5;stop-opacity:0;" />
    </linearGradient>
    <linearGradient
       gradientUnits="userSpaceOnUse"
       y2="757.06"
       x2="2417.0195"
       y1="907.40247"
       x1="2417.0195"
       id="linearGradient3953"
       xlink:href="#linearGradient3947"
       inkscape:collect="always" />
    <linearGradient
       id="linearGradient3623">
      <stop
         id="stop3625"
         offset="0"
         style="stop-color:#ffffff;stop-opacity:1;" />
      <stop
         style="stop-color:#ffffff;stop-opacity:0.49803922;"
         offset="0.65929979"
         id="stop3631" />
      <stop
         id="stop3627"
         offset="1"
         style="stop-color:#ffffff;stop-opacity:0;" />
    </linearGradient>
    <linearGradient
       gradientUnits="userSpaceOnUse"
       y2="30.625751"
       x2="114.28571"
       y1="-416.20926"
       x1="114.28571"
       id="linearGradient3629"
       xlink:href="#linearGradient3623"
       inkscape:collect="always" />
    <linearGradient
       id="linearGradient4094"
       inkscape:collect="always">
      <stop
         id="stop4096"
         offset="0"
         style="stop-color:#ffffff;stop-opacity:1;" />
      <stop
         id="stop4098"
         offset="1"
         style="stop-color:#ffffff;stop-opacity:0;" />
    </linearGradient>
    <linearGradient
       gradientUnits="userSpaceOnUse"
       y2="486.83426"
       x2="2643.0312"
       y1="48.46875"
       x1="2643.0312"
       id="linearGradient4100"
       xlink:href="#linearGradient4094"
       inkscape:collect="always" />
    <linearGradient
       id="linearGradient3473">
      <stop
         id="stop3475"
         offset="0"
         style="stop-color:#d5cece;stop-opacity:1" />
      <stop
         style="stop-color:#94b2fd;stop-opacity:1"
         offset="0.33733538"
         id="stop3481" />
      <stop
         id="stop3483"
         offset="0.86746705"
         style="stop-color:#444470;stop-opacity:1" />
      <stop
         id="stop3477"
         offset="1"
         style="stop-color:#344671;stop-opacity:1" />
    </linearGradient>
    <radialGradient
       gradientUnits="userSpaceOnUse"
       gradientTransform="matrix(0.8877745,1.5376705,-1.6555648,0.9558408,-154.50548,-3907.7931)"
       r="290.58034"
       fy="236.37978"
       fx="2540.5825"
       cy="236.37978"
       cx="2540.5825"
       id="radialGradient3479"
       xlink:href="#linearGradient3473"
       inkscape:collect="always" />
    <linearGradient
       id="linearGradient3463">
      <stop
         style="stop-color:#94b2fd;stop-opacity:1"
         offset="0"
         id="stop3465" />
      <stop
         id="stop3471"
         offset="0.24937803"
         style="stop-color:#345ec5;stop-opacity:1" />
      <stop
         id="stop3467"
         offset="0.83126009"
         style="stop-color:#050560;stop-opacity:1" />
      <stop
         style="stop-color:#0b2e83;stop-opacity:1"
         offset="1"
         id="stop3469" />
    </linearGradient>
    <radialGradient
       r="300"
       fy="-286.37698"
       fx="-15.766444"
       cy="-286.37698"
       cx="-15.766444"
       gradientTransform="matrix(0.8652191,1.4976642,-1.4995434,0.8652191,-431.55972,-14.98531)"
       gradientUnits="userSpaceOnUse"
       id="radialGradient3727"
       xlink:href="#linearGradient3463"
       inkscape:collect="always" />
    <inkscape:perspective
       sodipodi:type="inkscape:persp3d"
       inkscape:vp_x="0 : 526.18109 : 1"
       inkscape:vp_y="0 : 1000 : 0"
       inkscape:vp_z="744.09448 : 526.18109 : 1"
       inkscape:persp3d-origin="372.04724 : 350.78739 : 1"
       id="perspective2820" />
    <linearGradient
       inkscape:collect="always"
       xlink:href="#linearGradient3714"
       id="linearGradient3781"
       gradientUnits="userSpaceOnUse"
       gradientTransform="translate(-2484.341,2.237608)"
       x1="3031.7656"
       y1="193.06755"
       x2="3310.2007"
       y2="369.84424" />
    <radialGradient
       inkscape:collect="always"
       xlink:href="#linearGradient3595"
       id="radialGradient3784"
       gradientUnits="userSpaceOnUse"
       gradientTransform="matrix(1.9235854,1.1863505,-1.4772521,2.3952623,-4578.203,-3688.2551)"
       cx="2692.6335"
       cy="291.09601"
       fx="2692.6335"
       fy="291.09601"
       r="196.68087" />
    <radialGradient
       inkscape:collect="always"
       xlink:href="#linearGradient3925"
       id="radialGradient3787"
       gradientUnits="userSpaceOnUse"
       gradientTransform="matrix(2.8539077,-0.4364077,1.2940248,8.4568759,-2007.766,-1792.3657)"
       cx="661.41833"
       cy="554.65344"
       fx="661.41833"
       fy="554.65344"
       r="70.120392" />
    <radialGradient
       inkscape:collect="always"
       xlink:href="#linearGradient3473"
       id="radialGradient3795"
       gradientUnits="userSpaceOnUse"
       gradientTransform="matrix(0.8877745,1.5376705,-1.6555648,0.9558408,-1639.9422,-3951.3534)"
       cx="2540.5825"
       cy="236.37978"
       fx="2540.5825"
       fy="236.37978"
       r="290.58034" />
    <radialGradient
       inkscape:collect="always"
       xlink:href="#linearGradient3925"
       id="radialGradient3836"
       gradientUnits="userSpaceOnUse"
       gradientTransform="matrix(2.8539077,-0.4364077,1.2940248,8.4568759,-2007.766,-1792.3657)"
       cx="661.41833"
       cy="554.65344"
       fx="661.41833"
       fy="554.65344"
       r="70.120392" />
    <radialGradient
       inkscape:collect="always"
       xlink:href="#linearGradient3595"
       id="radialGradient3838"
       gradientUnits="userSpaceOnUse"
       gradientTransform="matrix(1.9235854,1.1863505,-1.4772521,2.3952623,-4578.203,-3688.2551)"
       cx="2692.6335"
       cy="291.09601"
       fx="2692.6335"
       fy="291.09601"
       r="196.68087" />
    <linearGradient
       inkscape:collect="always"
       xlink:href="#linearGradient3714"
       id="linearGradient3840"
       gradientUnits="userSpaceOnUse"
       gradientTransform="translate(-2484.341,2.237608)"
       x1="3031.7656"
       y1="193.06755"
       x2="3310.2007"
       y2="369.84424" />
    <radialGradient
       inkscape:collect="always"
       xlink:href="#linearGradient3463"
       id="radialGradient3842"
       gradientUnits="userSpaceOnUse"
       gradientTransform="matrix(0.8652191,1.4976642,-1.4995434,0.8652191,-431.55972,-14.98531)"
       cx="-15.766444"
       cy="-286.37698"
       fx="-15.766444"
       fy="-286.37698"
       r="300" />
    <radialGradient
       inkscape:collect="always"
       xlink:href="#linearGradient3473"
       id="radialGradient3844"
       gradientUnits="userSpaceOnUse"
       gradientTransform="matrix(0.8877745,1.5376705,-1.6555648,0.9558408,-1639.9422,-3951.3534)"
       cx="2540.5825"
       cy="236.37978"
       fx="2540.5825"
       fy="236.37978"
       r="290.58034" />
    <linearGradient
       inkscape:collect="always"
       xlink:href="#linearGradient4094"
       id="linearGradient3846"
       gradientUnits="userSpaceOnUse"
       x1="2643.0312"
       y1="48.46875"
       x2="2643.0312"
       y2="486.83426" />
    <linearGradient
       inkscape:collect="always"
       xlink:href="#linearGradient3623"
       id="linearGradient3848"
       gradientUnits="userSpaceOnUse"
       x1="114.28571"
       y1="-416.20926"
       x2="114.28571"
       y2="30.625751" />
    <linearGradient
       inkscape:collect="always"
       xlink:href="#linearGradient3947"
       id="linearGradient3850"
       gradientUnits="userSpaceOnUse"
       x1="2417.0195"
       y1="907.40247"
       x2="2417.0195"
       y2="757.06" />
  </defs>
  <sodipodi:namedview
     id="base"
     pagecolor="#ffffff"
     bordercolor="#666666"
     borderopacity="1.0"
     inkscape:pageopacity="0.0"
     inkscape:pageshadow="2"
     inkscape:zoom="0.7"
     inkscape:cx="356.22356"
     inkscape:cy="321.62404"
     inkscape:document-units="px"
     inkscape:current-layer="layer1"
     showgrid="false"
     inkscape:window-width="956"
     inkscape:window-height="951"
     inkscape:window-x="960"
     inkscape:window-y="85" />
  <metadata
     id="metadata2817">
    <rdf:RDF>
      <cc:Work
         rdf:about="">
        <dc:format>image/svg+xml</dc:format>
        <dc:type
           rdf:resource="http://purl.org/dc/dcmitype/StillImage" />
      </cc:Work>
    </rdf:RDF>
  </metadata>
  <g
     inkscape:label="Capa 1"
     inkscape:groupmode="layer"
     id="layer1"
     transform="translate(-34.285713,-3.7907536)">
    <g
       id="g3810"
       transform="translate(2.8571429,0)">
      <path
         sodipodi:type="arc"
         style="fill:url(#radialGradient3842);fill-opacity:1;stroke:none;stroke-width:16.68700027;stroke-linejoin:round;stroke-miterlimit:4;stroke-dasharray:none;stroke-opacity:1"
         id="path2649"
         sodipodi:cx="114.28571"
         sodipodi:cy="-116.20924"
         sodipodi:rx="300"
         sodipodi:ry="300"
         d="M 414.28571,-116.20924 A 300,300 0 1 1 -185.71429,-116.20924 A 300,300 0 1 1 414.28571,-116.20924 z"
         transform="matrix(1.0654523,0,0,1.0661205,243.795,468.71093)" />
      <path
         style="fill:#000000;fill-opacity:1;stroke:none;stroke-width:16.68700027;stroke-linejoin:round;stroke-miterlimit:4;stroke-dasharray:none;stroke-opacity:1"
         d="M 367.0022,39.448395 C 360.9045,39.448395 354.5752,36.932595 348.5323,37.288795 L 346.0713,37.476795 C 346.0713,37.476895 336.8034,36.705195 333.6558,37.229795 C 334.4233,37.979195 333.6856,37.605595 333.6974,38.302895 C 333.7681,39.176295 332.8778,38.738795 333.9663,38.687595 C 337.2319,38.534495 338.1685,38.238395 337.3806,40.291895 C 336.9676,41.368095 335.228,41.734495 330.7402,41.730295 C 324.1754,41.723895 316.3578,43.542295 316.3578,45.065795 C 316.3579,45.583395 317.6798,46.014495 319.2954,46.014495 C 322.0698,46.014395 322.2332,46.231795 322.2332,49.931295 C 322.2333,53.240595 322.5385,53.848195 324.2528,53.848195 C 325.3687,53.848095 328.1227,52.771695 330.3729,51.461295 C 332.6232,50.150595 337.0072,48.114795 340.1042,46.962995 C 343.201,45.811195 345.7345,44.512895 345.7345,44.056095 C 345.7346,42.715195 351.1386,41.899595 355.129,42.648295 L 358.8012,43.351995 L 355.6799,46.136995 C 353.9591,47.674295 351.8891,48.951995 351.0897,48.951995 C 350.2904,48.951895 349.6515,49.613195 349.6515,50.420895 C 349.6516,51.228795 350.4906,51.889895 351.5488,51.889895 C 353.9668,51.889795 356.1555,55.545395 354.6394,57.061296 C 354.061,57.639596 351.0447,58.422096 347.9379,58.805496 C 341.6223,59.585196 338.8794,60.629396 334.1675,64.069096 C 332.3937,65.363596 327.7667,67.164496 323.8855,68.047096 C 316.4899,69.728596 305.8152,72.862196 301.6692,74.564996 C 299.2729,75.549296 299.2643,75.572596 301.1797,76.982596 C 302.5837,78.015996 304.5067,78.268396 308.0342,77.839496 C 316.9851,76.750196 323.6396,75.175896 327.3128,73.310396 C 332.0742,70.892096 335.9156,70.832896 335.2997,73.187996 C 334.9803,74.409396 335.7053,75.220596 337.7783,76.003296 C 340.0671,76.867196 340.855,77.898396 341.3892,80.746396 C 341.9276,83.615896 342.7213,84.674996 345.1837,85.703796 C 348.4026,87.048496 353.5684,93.435796 353.5684,96.077496 C 353.5685,97.177596 352.7977,97.436096 350.6307,97.117896 C 347.4539,96.651596 346.9481,97.668396 348.7334,101.0042 C 349.6737,102.7608 349.5601,102.9239 347.7544,102.3508 C 346.6311,101.9941 344.8953,101.9633 343.868,102.2895 C 339.6121,103.6403 340.933,105.638 351.2121,113.2751 C 358.2996,118.5407 360.9709,121.0222 359.7498,121.2314 C 356.5604,121.7777 350.2915,124.4483 347.4178,126.4948 C 344.8948,128.2912 344.6761,128.8812 345.2449,132.2478 C 345.8527,135.8449 345.7272,136.0729 342.2462,137.756 C 339.1755,139.2405 338.2062,140.539 336.0036,146.1407 C 334.5686,149.7896 332.2772,153.9061 330.9238,155.2596 C 328.6029,157.5806 328.3079,157.6432 325.6604,156.2694 C 324.1162,155.4684 322.492,155.0168 322.0494,155.2903 C 320.7591,156.0878 321.106,160.4263 322.7228,163.5526 C 324.1112,166.2375 324.0605,166.7114 321.9882,170.5909 C 320.5258,173.3288 319.785,176.4621 319.785,179.6793 C 319.7851,184.4873 319.7277,184.5801 316.6026,184.8813 C 313.2214,185.2076 312.4515,186.9488 314.8276,188.9206 C 317.0223,190.742 315.5197,192.8848 312.0736,192.8683 C 308.6094,192.8517 295.2626,183.7483 296.2835,182.0968 C 296.6077,181.5724 300.1231,181.1482 304.0867,181.1482 C 311.2129,181.1482 311.3127,181.1045 313.3282,177.8433 C 314.4494,176.0293 315.3784,172.9838 315.3784,171.0805 C 315.3785,168.079 314.9623,167.4838 312.2877,166.5514 C 310.5919,165.9601 307.3968,165.4477 305.1884,165.4193 C 301.4118,165.3702 294.4178,164.2647 280.524,161.5635 C 272.4079,159.9854 268.3018,161.259 260.7558,167.6531 C 253.9592,173.4121 250.3598,178.1808 249.3723,182.6782 C 248.8022,185.2749 248.331,185.6159 246.0368,185.2792 C 244.1227,184.9983 242.7267,185.6027 241.0182,187.4213 C 239.7144,188.8092 239.1046,189.9612 239.6717,189.9612 C 240.2389,189.9612 241.2508,191.2566 241.9058,192.8376 C 242.8922,195.2191 242.8269,196.185 241.5385,198.4682 C 240.6832,199.984 239.1328,203.205 238.1111,205.6289 C 237.0899,208.0524 231.5786,216.4246 225.8708,224.2343 C 212.9674,241.8888 211.3125,245.1873 210.7846,254.2843 C 210.4365,260.2823 210.7077,261.8643 212.5288,264.8109 C 213.7078,266.7182 215.3184,268.2994 216.1089,268.2994 C 218.6634,268.2994 222.7722,265.6248 225.1057,262.4546 C 226.8414,260.0973 228.0033,259.4391 230.0019,259.6701 C 232.0989,259.9126 232.6735,260.541 232.9395,262.8832 C 233.1225,264.4931 234.5544,267.5758 236.122,269.7071 C 239.6299,274.4769 239.7131,276.5771 236.4586,281.3661 C 234.9987,283.5149 234.1268,285.8887 234.4085,286.9661 C 234.678,287.9972 234.5104,288.8635 234.0411,288.8635 C 232.2831,288.8635 231.1648,284.8676 231.1648,278.612 C 231.1649,270.353 229.4355,269.2555 224.6469,274.4808 C 221.7394,277.6535 221.3724,278.6615 221.3724,283.5694 C 221.3725,286.6117 221.8905,290.8731 222.5353,293.025 C 223.6718,296.8179 223.5963,297.032 220.5463,299.7573 C 218.8159,301.3034 216.5691,302.5727 215.5276,302.5727 C 213.3084,302.5727 209.6707,307.1276 206.9288,313.3441 C 204.6411,318.5306 201.3905,321.7353 197.4732,322.7078 L 194.6578,323.4119 L 195.3618,316.955 C 196.0374,310.6464 195.9902,310.5098 193.2809,308.7844 C 189.6222,306.4547 189.3394,306.014 187.1913,298.9616 C 186.1775,295.6333 183.9725,290.8433 182.2646,288.3124 L 179.1431,283.6919 L 181.1016,281.6416 C 185.084,277.3897 186.045,271.2373 182.7234,271.2373 C 180.8842,271.2373 180.8709,271.1424 182.6317,267.7485 C 184.8539,263.4652 183.3673,263.0026 179.2656,266.7084 C 173.9411,271.5187 171.4084,272.7561 170.3302,271.0842 C 169.6228,269.9875 169.292,270.0216 168.4942,271.2373 C 167.2308,273.1619 167.2574,274.8227 168.6164,278.5814 C 169.9272,282.2061 169.0615,288.1428 166.9028,290.3016 C 166.0777,291.1268 164.3497,291.801 163.0777,291.801 C 160.0491,291.801 153.8056,299.3083 153.8056,302.9397 C 153.8057,304.3826 153.1447,307.1571 152.3369,309.0905 C 151.5289,311.024 150.8678,314.0954 150.8678,315.9146 C 150.8679,319.9002 151.9437,320.0549 158.7936,317.108 C 164.3261,314.728 167.5148,309.987 167.5148,304.1025 C 167.5149,300.3811 169.2448,295.718 170.6361,295.718 C 171.115,295.718 172.8111,296.3651 174.3999,297.1867 C 178.4145,299.263 178.4892,303.646 174.5223,305.1431 C 172.1395,306.0426 171.4858,307.126 170.0853,312.7013 C 169.1139,316.5685 168.6918,320.7138 169.0448,322.9222 C 169.4848,325.6725 169.252,326.9814 168.0963,327.9407 C 166.016,329.6673 166.1075,331.2386 168.2493,330.57241 C 171.9932,329.4081 191.5118,327.0817 193.1584,327.604 C 194.7363,328.1049 194.7561,328.4219 193.5256,330.78659 C 192.7733,332.23281 191.0779,334.42491 189.7311,335.68273 C 187.7675,337.51683 186.8964,337.79287 185.3553,336.96807 C 183.0706,335.74531 182.2033,336.38456 182.2033,339.3243 C 182.2034,341.88126 178.326,343.78576 173.8798,343.42481 C 171.2804,343.21379 170.8996,343.52989 170.6055,346.11769 C 170.3401,348.4559 170.9411,349.63383 173.6657,351.99308 C 176.5448,354.48609 177.5503,356.57695 180.1224,365.36573 C 183.7536,377.77326 183.8005,378.63234 180.9487,382.19614 L 178.7453,384.95032 L 172.411,383.51203 C 168.9333,382.70858 165.9593,381.6654 165.8011,381.21691 C 164.6976,378.08924 163.7447,377.64654 160.8131,378.8607 C 157.5596,380.20839 155.1986,379.42883 151.0821,375.67819 L 148.8483,373.65854 L 146.6758,375.83113 C 143.936,378.57083 143.9492,383.86113 146.7062,389.26499 C 148.4657,392.71385 148.5614,393.46433 147.3794,395.59943 C 146.6415,396.93236 146.0215,399.02734 146.0023,400.22012 C 145.9834,401.41303 145.0906,402.8567 144.0133,403.43329 C 142.6293,404.17397 142.0549,405.48594 142.0549,407.90092 C 142.055,410.89188 142.4042,411.37973 144.9007,411.87913 C 147.5214,412.40321 147.8453,412.94767 149.0013,418.76431 C 150.3259,425.42785 151.7794,427.15903 158.2121,429.71943 C 160.2533,430.53179 161.6729,432.15859 162.8635,435.04397 C 164.9801,440.17339 164.95,442.19099 162.7715,446.27458 C 161.1892,449.24126 160.9143,449.36776 159.1302,448.01877 C 154.9097,444.82786 151.8544,446.55904 146.5838,455.05699 C 143.6867,459.72821 143.3334,462.35197 145.4209,464.08421 C 147.1317,465.5039 148.8971,464.65961 148.94,462.37056 C 148.9964,459.37736 151.8472,464.17882 151.8472,467.26671 C 151.8473,469.35934 150.8761,470.68324 147.7772,472.92793 C 145.5421,474.547 143.1274,475.89627 142.422,475.89627 C 141.7168,475.89617 140.6032,477.76895 139.9433,480.058 C 139.2838,482.34686 138.1731,485.08516 137.4648,486.14753 C 136.7564,487.20989 136.1795,489.4775 136.1795,491.19674 C 136.1796,492.91578 134.8278,497.86832 133.1806,502.18243 L 130.1816,510.01626 L 132.3543,514.23918 C 138.0254,525.3127 142.7334,537.5753 142.2691,540.00516 C 141.9126,541.86992 142.6342,543.58767 144.8701,546.37016 C 146.8649,548.85232 147.9285,551.328 147.9607,553.43893 C 148.0051,556.31815 148.7955,557.24617 155.06,561.73181 C 158.9377,564.50802 167.4545,571.33914 173.9716,576.94042 C 189.2092,590.03694 194.3759,593.79973 201.4206,596.89222 C 204.5758,598.27735 210.0378,600.67186 213.5386,602.21689 C 217.0395,603.76183 225.9642,606.60668 233.3985,608.52059 C 245.2429,611.56981 248.3936,611.99578 258.8586,612.00919 C 270.9366,612.02455 273.2576,612.42693 290.4081,617.39495 C 295.2553,618.79896 302.9028,620.57833 307.4222,621.34243 C 311.9416,622.10652 315.72,622.84662 315.8069,622.99488 C 315.8938,623.14314 316.6983,624.47037 317.6123,625.93256 C 318.5266,627.39475 319.2954,630.08489 319.2954,631.93034 C 319.2955,634.89712 319.7207,635.45283 322.9675,636.73475 C 324.9874,637.53213 329.9445,638.96365 333.984,639.91722 C 338.0233,640.87052 343.5314,642.455 346.2242,643.43628 C 348.9172,644.41758 352.4423,645.52342 354.058,645.88437 C 356.6057,646.4534 358.9053,647.86701 359.9028,649.34232 C 359.9069,649.34829 359.8988,649.36679 359.9028,649.37287 C 363.7885,650.79501 367.9617,650.13963 373.296,652.0409 C 436.2863,650.03711 482.0448,628.96512 534.7167,600.11036 C 531.2358,600.78118 530.384,600.79292 527.5653,600.53379 C 525.3197,599.95174 522.4564,596.13711 522.4706,590.89197 C 522.4805,587.28144 525.2158,585.23351 534.5117,571.86077 C 540.315,563.51273 547.597,553.37781 550.6996,549.33849 C 559.0988,538.40314 566.6164,522.74252 567.469,514.39214 C 567.8442,510.71689 568.7808,505.54215 569.5498,502.8862 C 571.5839,495.86069 571.205,485.68857 568.9071,485.68857 C 568.4471,485.68847 560.7563,493.11426 551.8319,502.21306 C 542.9073,511.31187 534.8503,518.96328 533.9304,519.19653 C 531.1825,519.89307 526.0214,518.07708 524.9336,516.04469 C 524.0871,514.46265 524.4292,513.78355 526.9838,511.91351 C 530.0499,509.66922 551.4358,483.57745 561.0733,470.3268 C 563.8891,466.4557 566.4148,461.93021 566.6733,460.2897 C 567.1515,457.25614 570.0413,450.62187 579.2502,431.34132 L 584.3913,420.5698 L 584.942,406.86058 C 585.252,399.32053 585.2931,391.97865 585.0033,390.55025 C 584.245,386.81144 580.532,386.4218 573.5585,389.35686 C 567.2036,392.03171 565.0197,391.78886 560.9814,388.01042 C 555.1397,382.54427 555.0707,376.00487 560.8898,379.44215 L 563.7356,381.09451 L 570.529,376.07596 C 577.9107,370.59884 582.994,364.99597 591.2459,353.24776 C 599.2626,341.83415 601.2449,340.98781 611.1059,344.80191 C 621.0641,348.65352 622.4188,348.70511 626.4061,345.53632 C 628.3677,343.97779 630.3573,342.72104 630.8435,342.72104 C 632.776,342.72104 638.0275,347.43388 642.3187,353.03351 C 646.6731,358.71549 662.0354,374.05639 663.3723,374.05639 C 664.2444,374.05639 665.9348,369.51003 666.7383,365.02907 C 670.4087,356.1783 672.0578,347.03514 669.8348,343.23621 C 666.3725,169.8592 539.7765,41.426495 367.0022,39.448395 z M 197.0588,85.865996 C 158.4667,113.3401 133.2664,137.4437 106.1544,173.3365 C 106.4331,175.4865 103.6338,178.1779 107.4338,176.1285 C 108.6285,175.5165 109.8091,175.5699 112.6679,172.204 C 115.5266,168.8377 125.6104,160.2476 133.8843,152.0772 C 144.3583,141.7349 149.519,135.9092 150.8678,132.8597 C 151.9335,130.4509 153.4451,128.2241 154.2034,127.9331 C 154.9619,127.642 159.0777,124.7438 163.3531,121.4762 C 170.4634,116.0421 174.3694,114.2331 174.3694,116.366 C 174.3695,116.8209 173.4422,118.012 172.319,119.0281 C 171.1961,120.0444 168.6727,123.0885 166.7192,125.7911 C 164.7657,128.4934 157.848,136.8868 151.3574,144.427 C 144.8672,151.967 137.8061,160.3415 135.6593,163.0323 C 133.5123,165.723 130.5467,169.2482 129.0495,170.8663 C 121.7243,178.7818 106.2394,205.0517 103.926,213.5238 C 102.5442,218.5853 102.7995,223.4088 104.4768,223.9587 C 105.0939,224.1612 107.7246,221.6033 110.3217,218.2976 C 112.919,214.9917 118.3757,209.8096 122.4397,206.7611 C 130.0098,201.0822 131.1627,200.4754 151.3574,191.8583 C 164.4298,186.2806 166.6646,184.6269 169.9935,178.088 C 171.2566,175.6067 176.1217,169.4375 180.7956,164.3788 C 185.4698,159.3199 192.2207,151.4822 195.7901,146.9361 C 199.3593,142.3901 206.3535,134.2939 211.3354,128.9735 C 216.3172,123.6531 220.3932,118.6736 220.3932,117.896 C 220.3933,117.1183 219.8613,115.6625 219.2305,114.6523 C 218.2915,113.1487 218.5664,111.794 220.7909,107.2468 C 222.286,104.1914 223.3691,101.532 223.178,101.3408 C 222.7587,100.9216 214.7203,102.3979 212.3146,103.3299 C 210.9098,103.8741 210.6008,103.4472 210.6008,100.9737 C 210.6009,98.611296 211.2387,97.633996 213.5386,96.444796 C 215.1543,95.608996 216.4762,94.482996 216.4762,93.966096 C 216.4763,93.449096 213.7222,91.644596 210.3561,89.957396 C 206.9902,88.269996 204.0287,86.732096 203.8075,86.530096 L 199.6764,85.030596 C 196.7127,83.567796 198.8789,86.579096 197.0588,85.865996 z M 288.8473,91.120096 C 283.7905,91.342596 281.1054,93.849396 281.1054,98.464296 C 281.1056,100.6143 280.4189,102.0413 278.9021,103.0546 C 276.7234,104.51 276.7084,104.5385 278.5655,106.6043 C 280.5531,108.8149 281.9424,108.7259 287.4705,105.9923 C 292.4369,103.5362 297.7522,97.792396 297.7522,94.883996 C 297.7523,92.736896 297.2034,92.173196 294.6922,91.670796 C 292.4958,91.231496 290.533,91.046096 288.8473,91.120096 z M 316.3578,97.026196 C 314.6382,97.031496 314.0271,97.748396 312.5633,100.1169 C 311.4051,101.9907 310.4824,105.0238 310.4824,106.849 C 310.4825,111.8246 318.6923,131.3054 321.4374,132.8291 C 324.8978,134.7498 330.8692,134.4051 334.6572,132.0642 C 338.4293,129.7328 338.1526,129.0946 332.5151,127.4434 C 330.3608,126.8124 327.4964,125.4282 326.15,124.3835 C 323.7808,122.5448 323.7019,122.1131 323.7019,110.7661 C 323.702,104.3172 323.3881,98.762496 323.0287,98.403196 C 322.6694,98.043596 320.6479,97.493896 318.5304,97.209796 C 317.6384,97.089896 316.9309,97.024296 316.3578,97.026196 z M 259.1034,104.0643 C 258.2025,104.0693 257.0622,104.6292 255.8291,105.7781 C 253.0648,108.3531 253.9351,109.8389 257.9406,109.45 C 260.4994,109.2017 261.0312,108.7424 261.0312,106.7268 C 261.0313,104.9549 260.2618,104.058 259.1034,104.0643 z M 253.2279,116.1212 C 253.0316,116.1138 252.8293,116.1256 252.616,116.1518 C 251.1955,116.3253 249.266,117.275 245.4248,119.3953 C 239.4493,122.6939 238.1706,123.8761 237.2543,126.8618 C 236.2426,130.1587 236.4389,130.7384 239.7636,135.6751 C 241.727,138.5903 243.8358,140.9998 244.4762,140.9998 C 245.1165,140.9997 246.5322,139.5 247.5974,137.6948 C 248.7579,135.7282 251.3435,133.5599 254.0542,132.2478 C 258.871,129.916 258.993,129.5738 257.9712,122.119 C 257.4979,118.6659 256.822,117.4368 254.9417,116.5801 C 254.3516,116.3111 253.8175,116.1429 253.2279,116.1212 z M 150.3171,202.2934 C 149.5496,202.2381 148.9271,203.6112 147.5324,206.3633 C 145.4975,210.3792 144.9926,212.8252 144.9926,218.2365 C 144.9927,224.4336 145.2172,225.2347 147.5631,227.08 C 148.9822,228.1963 150.7017,229.1303 151.388,229.1303 C 152.0747,229.1303 155.4156,227.2575 158.8243,224.9686 C 162.2328,222.6797 165.5884,219.7052 166.2603,218.3588 C 167.5765,215.7204 167.9903,205.6096 166.7804,205.6289 C 166.3766,205.6352 163.6224,206.2972 160.6603,207.0977 C 155.6729,208.4451 155.1751,208.4376 154.081,206.8528 C 152.0094,203.8516 151.0847,202.3486 150.3171,202.2934 z M 436.3745,280.2337 C 437.6605,280.2055 451.4619,288.3827 456.0509,291.9234 C 460.3855,295.2675 461.6433,295.7808 464.1602,295.2283 C 466.915,294.6232 467.7933,295.1976 475.2378,302.6031 C 479.6769,307.0192 485.1454,312.1398 487.3864,313.9867 C 492.6593,318.3322 498.8841,327.3652 498.2191,329.6849 C 497.9407,330.65567 497.4135,332.23084 497.0256,333.17355 C 496.4726,334.51705 496.7979,334.88721 498.5863,334.88721 L 500.8813,334.88721 L 498.6781,336.41715 C 497.3306,337.36113 493.3962,338.14255 488.4267,338.46747 C 483.9898,338.75761 479.3991,339.61268 478.206,340.36471 C 475.3686,342.15369 475.5883,342.24553 472.6367,338.37561 C 470.3122,335.32805 470.0967,334.19715 470.0967,326.2576 C 470.0968,316.6253 469.8982,316.2817 463.7318,314.2926 C 454.3286,311.2597 444.6751,305.3838 439.251,299.3901 C 434.427,294.0592 433.8654,292.9523 433.8654,289.1082 C 433.8655,285.6239 434.8246,282.088 436.2829,280.2646 C 436.2974,280.2462 436.333,280.2347 436.3745,280.2337 z M 376.7333,312.3648 C 379.5259,312.2501 381.8708,313.6872 382.9455,316.2818 C 383.6246,317.9216 384.0093,319.4062 383.8022,319.5562 C 380.8541,321.6895 373.2497,326.0326 372.5715,325.9822 C 372.0803,325.9459 370.6925,325.465 369.4809,324.8806 C 368.2693,324.2962 367.2777,323.4727 367.2777,323.0751 C 367.2778,321.3901 373.9572,312.8213 375.5093,312.5179 C 375.9246,312.4367 376.3345,312.3809 376.7333,312.3648 z M 382.7924,325.0643 C 384.8568,324.9716 387.1629,325.3172 389.8,326.0434 C 391.685,326.5626 397.8385,327.6793 403.4786,328.5222 C 414.7557,330.20731 417.5725,331.79706 418.7485,337.15157 C 419.3194,339.75144 418.9724,340.53423 416.1167,342.96585 C 414.3005,344.51235 411.4383,347.09604 409.7822,348.68817 C 407.1926,351.17855 405.6482,351.69432 398.7355,352.48269 C 394.3159,352.98679 390.2542,353.6753 389.708,354.01274 C 389.1622,354.35019 387.6091,353.89327 386.2502,353.00296 C 384.3119,351.73279 383.465,351.63017 382.3639,352.5439 C 381.5921,353.1845 380.9869,354.37172 380.9869,355.17557 C 380.9869,356.4234 380.5931,356.39805 378.447,354.99196 C 375.5772,353.11155 373.7196,354.02557 372.7858,357.74605 C 372.4783,358.97165 371.0873,360.56702 369.7258,361.29577 C 368.3641,362.0245 366.4191,364.06452 365.3804,365.82469 C 362.8388,370.13233 358.301,372.28135 350.6001,372.83235 L 344.1739,373.29132 L 341.3892,369.0684 C 338.6086,364.86652 338.5801,364.78054 339.1554,353.33951 C 339.5687,345.12112 340.2908,340.65711 341.634,337.64119 C 342.668,335.32003 343.7924,332.20646 344.1434,330.72549 C 344.7205,328.2905 345.191,328.0326 349.1007,328.0326 C 354.417,328.0326 358.4646,329.4731 358.4646,331.36806 C 358.4647,333.32338 363.1454,336.84565 365.7475,336.84565 C 367.143,336.84565 369.056,335.29123 371.2557,332.34728 C 374.8267,327.5687 378.251,325.2681 382.7924,325.0643 z M 251.9429,363.46836 C 252.7633,363.42608 253.7655,363.95457 254.9417,365.05962 C 257.1727,367.15558 257.2999,367.20179 260.5112,367.20179 C 261.7596,367.20179 263.1398,368.50847 264.3668,370.87389 C 268.3937,378.63644 271.1722,380.76676 278.6573,381.89023 C 282.4276,382.45593 286.9056,383.38541 288.6333,383.94045 C 292.4786,385.17574 295.7939,390.16452 295.7939,394.77316 C 295.794,397.73044 296.5767,398.81543 302.1589,403.43329 C 307.235,407.63232 308.5238,409.25519 308.5238,411.45062 C 308.5239,413.54961 308.9914,414.20481 310.4824,414.20481 C 311.5579,414.20471 314.1699,415.77217 316.2965,417.69321 C 319.376,420.47531 320.8191,421.12326 323.396,420.87571 C 326.8134,420.54746 326.7939,420.63266 325.4768,413.96 C 324.9757,411.42095 325.1396,411.26712 328.4759,411.26712 C 330.422,411.26702 332.0227,411.59742 332.0254,412.00154 C 332.0281,412.40537 333.0351,413.99095 334.2593,415.5206 C 336.4582,418.26822 336.5141,418.26155 338.727,416.46919 C 340.6132,414.94198 340.7999,414.24563 339.9817,412.09329 C 339.231,410.11869 337.1574,408.77684 330.8625,406.15671 C 324.2656,403.41086 322.0814,401.9516 319.4178,398.47583 L 316.1434,394.16115 L 319.1118,393.39617 C 322.4491,392.53142 323.7019,391.1461 323.7019,388.25523 C 323.702,386.76798 325.0069,385.87373 329.2712,384.43004 C 334.5186,382.65373 334.9829,382.63434 337.3499,384.18525 C 339.538,385.61885 339.8593,386.53648 339.8593,391.19291 C 339.8594,396.10297 340.0472,396.58513 342.3379,397.16005 C 344.739,397.76267 344.7592,397.83913 343.1029,399.66931 C 341.6229,401.30491 341.5972,401.70631 342.8274,402.4846 C 343.6141,402.98204 344.5962,403.39441 345.0002,403.40262 C 345.4042,403.41086 345.7345,404.31459 345.7345,405.39173 C 345.7346,406.96369 346.3844,407.35019 349.0395,407.35019 C 351.3701,407.35019 352.7661,407.99209 353.7827,409.52282 C 355.2199,411.68742 355.2366,411.67672 359.1991,409.89003 C 361.3867,408.90354 363.6857,408.40297 364.3094,408.7884 C 364.9331,409.17382 367.4211,409.21358 369.8483,408.84959 C 373.6325,408.28213 374.4329,407.73847 375.3257,405.17748 L 376.3662,402.20924 L 383.6187,402.66821 C 390.3291,403.09888 391.1345,402.93592 394.4818,400.49558 C 396.4733,399.04379 399.9823,395.8131 402.2545,393.33487 L 406.3858,388.8366 L 407.3648,392.4475 C 407.9174,394.4368 408.3717,397.11539 408.3747,398.38408 C 408.3778,399.65277 409.511,402.01555 410.8841,403.64743 C 412.6581,405.75562 413.2302,407.36733 412.873,409.18624 C 411.5844,415.74856 411.939,419.75459 414.0664,422.74242 C 415.2509,424.40564 416.2392,426.88672 416.2392,428.28124 C 416.2393,432.01112 409.9467,436.20114 402.1321,437.67566 C 396.5063,438.73714 395.5851,438.66224 393.0743,437.06365 C 391.5357,436.08392 389.9246,434.72025 389.4939,434.03421 C 389.0634,433.34796 386.9701,432.81018 384.8425,432.81018 C 381.602,432.81008 380.9869,433.12577 380.9869,434.79918 C 380.9869,435.89778 380.0763,438.56188 378.9672,440.73577 C 377.4916,443.62859 377.2181,445.04103 377.988,445.96846 C 378.8018,446.94888 377.9434,447.7214 374.1934,449.33468 C 371.5274,450.48153 367.7553,451.41552 365.8088,451.41552 C 363.8623,451.41543 360.9286,452.09876 359.2908,452.94548 C 356.6666,454.30259 355.9007,454.33089 352.7422,453.09854 C 350.2826,452.13879 348.2406,451.96723 346.2242,452.54772 C 344.0918,453.16159 342.2309,452.93461 339.4921,451.72145 L 335.728,450.03844 L 329.3631,453.40455 C 321.4188,457.61798 319.8557,459.78745 320.5194,465.67547 C 320.9307,469.32328 320.6522,470.49163 318.9894,472.04046 C 317.8727,473.08089 316.7213,473.85674 316.419,473.78476 C 316.1167,473.71268 313.6648,472.86909 310.972,471.8875 C 308.2792,470.90593 303.7279,470.07495 300.8738,470.05145 C 295.5224,470.00718 291.6991,468.57006 286.2769,464.51273 C 283.5471,462.46987 282.1701,462.17923 275.3526,462.27883 C 268.9325,462.37263 266.568,461.93892 262.1634,459.9225 C 255.4498,456.8488 254.2126,454.07552 258.1241,450.95646 L 260.8169,448.8144 L 258.3385,446.8866 C 254.4517,443.82924 252.2709,438.89315 253.5646,436.05378 C 254.9903,432.92502 254.9676,432.81018 252.6773,432.81018 C 251.5929,432.81008 249.8831,432.30263 248.8826,431.67789 C 247.4083,430.75701 246.5347,430.91222 244.1701,432.59591 C 241.6598,434.3834 240.7143,434.53784 237.5603,433.66699 C 233.5399,432.55684 223.4427,432.95274 213.5386,434.61558 C 210.0379,435.20331 204.9735,435.96818 202.308,436.29857 C 198.5342,436.76664 196.8015,437.60389 194.4741,440.09309 C 192.817,441.86579 189.3616,444.00973 186.7016,444.89749 C 181.9893,446.47013 181.7881,446.43194 175.1956,443.85706 C 169.2831,441.54772 168.4942,440.93983 168.4942,438.68556 C 168.4943,435.24434 173.501,433.25622 178.1028,434.86038 C 180.6687,435.75481 181.7302,435.62262 184.376,434.09532 C 189.0547,431.3945 191.0145,426.76938 191.0164,418.33588 L 191.0164,411.23647 L 197.8709,404.41251 C 204.4912,397.80535 204.7255,397.41053 204.7255,392.78415 C 204.7256,388.87272 205.1292,387.71009 206.9594,386.51092 C 208.9758,385.18974 209.5211,385.21511 212.5594,386.78637 C 215.8037,388.46409 216.08,388.45234 219.3834,386.75573 C 221.275,385.78434 223.6075,383.66685 224.5549,382.04318 C 225.5023,380.41953 228.2076,378.01591 230.5833,376.68797 L 234.9288,374.27054 L 235.5407,376.84104 C 237.7372,385.77298 245.4512,392.21179 266.8454,402.94367 C 278.0432,408.56053 278.6216,408.98992 280.0344,412.98076 C 281.7258,417.75805 283.1084,417.85705 284.4103,413.31734 C 285.0993,410.91528 284.925,409.32942 283.6454,406.64633 C 281.6883,402.54218 282.7806,401.1127 287.1339,402.02554 C 293.5051,403.3618 289.665,397.52999 280.6158,392.14149 C 275.6399,389.17844 274.1712,388.73416 271.0072,389.26499 C 267.3356,389.88114 267.1205,389.7696 258.5221,381.06395 C 250.3833,372.82383 249.7701,371.9011 249.7701,368.18101 C 249.7702,365.15236 250.5751,363.53908 251.9429,363.46836 z M 553.6373,383.48148 C 554.7723,383.42017 555.2419,384.90291 555.2591,388.01042 C 555.2755,390.94409 549.4712,403.27631 547.1806,405.17748 C 544.951,407.02803 540.4938,407.27823 535.2768,405.82006 C 531.656,404.80831 529.4247,404.73027 526.4331,405.48349 C 522.852,406.38526 521.7634,406.17218 515.8451,403.40262 C 509.3265,400.35223 509.2658,400.26793 509.2658,396.42563 C 509.2659,391.42411 510.7292,388.72672 513.4582,388.74484 C 514.6513,388.75266 518.6946,390.27508 522.4551,392.11084 C 528.9472,395.28041 529.5524,395.38167 534.6648,394.4365 C 541.6994,393.1362 545.1512,391.29711 549.6897,386.41917 C 551.4608,384.51564 552.7546,383.52896 553.6373,383.48148 z M 235.2959,385.07272 C 233.566,385.03493 231.1648,392.9193 231.1648,398.84304 C 231.1649,402.48206 230.4893,405.78157 229.2675,408.17638 C 227.4148,411.80794 227.4112,411.95796 229.2062,414.69443 C 231.0358,417.48316 234.5178,419.98383 236.7035,420.04953 C 237.3384,420.06864 238.577,419.36936 239.4269,418.51948 C 242.8367,415.10971 242.9214,413.73791 240.3146,404.2901 C 238.9206,399.23826 237.5003,392.92368 237.1625,390.27479 C 236.8249,387.62607 236.042,385.30021 235.4488,385.10328 C 235.3947,385.08526 235.3516,385.07381 235.2959,385.07272 z M 265.9274,420.20259 C 265.0888,420.24196 264.4508,420.66664 263.51,421.51838 C 262.4133,422.51082 261.5073,422.92377 261.4902,422.4364 C 261.4187,420.39922 258.5833,425.53245 258.5833,427.69977 C 258.5833,429.84134 258.8897,430.03689 261.7657,429.50527 C 263.5161,429.18164 266.2701,429.29395 267.8858,429.78063 C 272.4467,431.15429 274.8127,430.99948 277.0049,429.13805 C 278.4849,427.88142 278.8806,426.70604 278.4737,424.73152 C 278.0141,422.50085 277.4081,422.03863 274.9239,422.03863 C 273.275,422.03854 270.481,421.51543 268.7121,420.87571 C 267.6711,420.4993 266.9174,420.25204 266.2947,420.20259 C 266.165,420.19222 266.0472,420.19701 265.9274,420.20259 z M 344.8777,423.23202 C 343.6453,423.22311 342.626,423.7567 341.3281,424.97632 C 339.6138,426.58677 338.2961,426.99707 336.4624,426.53694 C 334.4136,426.02263 333.984,426.24296 333.984,427.82217 C 333.9841,432.19542 342.8645,433.34707 347.2953,429.53581 C 350.4302,426.83941 349.9845,424.36706 346.1937,423.41564 C 345.7232,423.29754 345.2886,423.23497 344.8777,423.23202 z M 429.2139,455.4854 C 432.4296,455.52135 438.658,458.80048 446.167,464.45142 C 451.5348,468.49133 454.512,469.974 459.2029,470.96949 C 463.4505,471.87085 465.9148,473.00941 467.4344,474.76398 C 472.6846,480.82415 479.2567,486.6678 480.8377,486.6678 C 481.7833,486.6677 485.7979,487.77619 489.7732,489.14643 C 493.7484,490.51666 498.8983,492.10703 501.1872,492.66559 C 504.5391,493.48323 505.349,494.08556 505.349,495.84808 C 505.3491,497.35805 506.4811,498.67393 509.0211,500.10155 C 512.5376,502.07782 517.0998,507.10296 517.0998,509.00637 C 517.0999,510.85907 514.4319,511.86083 507.9807,512.43368 C 501.6624,512.99488 501.31,512.90616 500.3,510.68949 C 498.9134,507.64613 495.9514,506.95703 492.3436,508.82288 C 489.5392,510.27301 489.3293,510.21406 486.3152,507.29271 C 484.0172,505.06527 482.2799,504.29393 479.7054,504.29393 C 476.0213,504.29383 472.9718,501.61045 463.8237,490.33992 C 460.6352,486.41162 459.5294,485.68857 456.6628,485.68857 C 453.8698,485.68847 452.2051,484.65989 447.2378,479.96614 C 443.9185,476.82927 439.202,473.12289 436.7724,471.73454 C 434.3428,470.34609 430.4155,467.4983 428.0511,465.40011 C 423.8452,461.66768 423.7927,461.52647 425.144,458.69845 C 425.9181,457.07843 427.431,455.6836 428.6019,455.51596 C 428.7891,455.48922 428.9996,455.48294 429.2139,455.4854 z M 136.2407,469.04165 C 135.7384,469.04155 135.0481,469.90632 134.7106,470.96949 C 134.3732,472.03262 133.1005,473.68497 131.8954,474.64159 C 130.69,475.5981 129.3681,476.93651 128.9578,477.60992 C 127.7402,479.60716 134.2483,479.14017 135.7816,477.12031 C 137.2675,475.16294 137.6174,469.04165 136.2407,469.04165 z M 142.8199,555.33627 L 143.3401,556.13182 L 144.2582,556.89687 C 143.7698,556.38082 143.3119,555.86399 142.8199,555.33627 z"
         id="path2651"
         sodipodi:nodetypes="cccccsssssssssscccsssssssssssssssssssssssssssssssssssssssssssssssssssssssssssssssssssscccsscccssssssssssssssssssssssssssssscccsscccsssssssssssssssssssscccsssssssssssssssssssccccsssssssssssscccssscccssssssccccccsssssssssssssssssssssssssssssccccssssssccsssssssssccsssccsssssssssccsssssssssccsssssscccssssssssccssssssccsssssssssssssscccsssssssccsssssssssssssssssscccsssssssssssssscccscccssssssssssssssssscccsssssssscccssssssssssssscccssssscccsssssssssccssssssssssccssssssssccssssssssssccsssssccsssssssssssssssssssssccssssccccc" />
      <path
         style="fill:url(#radialGradient3844);fill-opacity:1;stroke:none;stroke-width:16.68700027;stroke-linejoin:round;stroke-miterlimit:4;stroke-dasharray:none;stroke-opacity:1"
         d="M 365.5531,31.943795 L 349.9281,32.162495 C 349.0487,32.173195 346.986,33.126795 343.7094,32.787495 C 341.3601,32.949895 339.0128,33.104395 336.6781,33.318795 C 336.8205,33.750295 336.8143,34.263195 336.5531,34.943795 C 336.1312,36.042695 334.3551,36.416895 329.7719,36.412495 C 323.0679,36.405995 315.0844,38.262395 315.0844,39.818795 C 315.0842,40.347495 316.4343,40.787495 318.0844,40.787495 C 320.9175,40.787495 321.0844,41.009695 321.0844,44.787495 C 321.0842,48.167095 321.3964,48.787495 323.1469,48.787495 C 324.2865,48.787495 327.0989,47.688395 329.3969,46.349995 C 331.6949,45.011695 336.1718,42.932695 339.3344,41.756195 C 342.4967,40.580095 345.0844,39.254295 345.0844,38.787495 C 345.0842,37.418395 350.6032,36.585495 354.6781,37.349995 L 358.4281,38.068795 L 355.2407,40.912495 C 353.483,42.482795 351.3698,43.787495 350.5531,43.787495 C 349.7366,43.787495 349.0844,44.462495 349.0844,45.287495 C 349.0842,46.112495 349.9413,46.787495 351.0219,46.787495 C 353.4912,46.787495 355.7263,50.520195 354.1781,52.068795 C 353.5872,52.659295 350.507,53.458295 347.3344,53.849995 C 340.8845,54.646295 338.084,55.712495 333.2719,59.224996 C 331.4604,60.547396 326.7354,62.386396 322.7719,63.287496 C 315.2194,65.004696 304.3182,68.204596 300.0844,69.943796 C 297.6369,70.948796 297.6284,70.972596 299.5844,72.412496 C 301.018,73.467996 302.9819,73.725796 306.5844,73.287496 C 315.7248,72.175296 322.5206,70.567696 326.2719,68.662496 C 331.1344,66.193096 335.0573,66.132496 334.4281,68.537496 C 334.1017,69.784896 334.8424,70.613496 336.9594,71.412496 C 339.2964,72.294696 340.1013,73.348196 340.6469,76.256196 C 341.1967,79.186596 342.0072,80.267796 344.5219,81.318796 C 347.8089,82.692096 353.0844,89.214896 353.0844,91.912496 C 353.0842,93.035996 352.2972,93.299796 350.0844,92.974996 C 346.8398,92.498796 346.3238,93.536896 348.1469,96.943796 C 349.107,98.737596 348.9912,98.903696 347.1469,98.318796 C 345.9998,97.954496 344.2273,97.923596 343.1781,98.256196 C 338.8318,99.635596 340.1809,101.676 350.6781,109.475 C 357.9156,114.8524 360.6441,117.3864 359.3969,117.6 C 356.1398,118.1579 349.7383,120.8851 346.8031,122.975 C 344.2264,124.8096 344.0034,125.4118 344.5844,128.85 C 345.2048,132.5234 345.0769,132.7563 341.5219,134.475 C 338.3863,135.991 337.3965,137.3171 335.1469,143.0375 C 333.6816,146.764 331.3416,150.9677 329.9594,152.35 C 327.589,154.7202 327.2881,154.7843 324.5844,153.3812 C 323.0073,152.5632 321.3489,152.102 320.8969,152.3812 C 319.5792,153.1957 319.9333,157.6257 321.5844,160.8188 C 323.0021,163.5607 322.9505,164.0444 320.8344,168.0062 C 319.3406,170.8023 318.5844,174.0021 318.5844,177.2875 C 318.5842,182.1976 318.5258,182.2923 315.3344,182.6 C 311.8813,182.9329 311.0954,184.7112 313.5219,186.725 C 315.7631,188.585 314.2286,190.7735 310.7094,190.7562 C 307.1714,190.7392 293.5418,181.4435 294.5844,179.7562 C 294.9152,179.2206 298.5057,178.7875 302.5531,178.7875 C 309.8301,178.7875 309.9323,178.7429 311.9907,175.4125 C 313.1353,173.5601 314.0844,170.4502 314.0844,168.5062 C 314.0842,165.4413 313.6595,164.8334 310.9281,163.8812 C 309.1959,163.2775 305.9337,162.7542 303.6781,162.725 C 299.8211,162.6752 292.6791,161.546 278.4907,158.7875 C 270.2021,157.1761 266.0093,158.4764 258.3031,165.0062 C 251.3621,170.8877 247.6868,175.7571 246.6781,180.35 C 246.0957,183.0019 245.6148,183.3504 243.2719,183.0062 C 241.3172,182.7192 239.8915,183.3367 238.1469,185.1938 C 236.8153,186.611 236.1928,187.7875 236.7719,187.7875 C 237.3511,187.7875 238.3847,189.1105 239.0531,190.725 C 240.0603,193.157 239.9943,194.1433 238.6781,196.475 C 237.8044,198.023 236.2213,201.3125 235.1781,203.7875 C 234.1348,206.2625 228.507,214.8125 222.6781,222.7875 C 209.5009,240.8165 207.8112,244.1848 207.2719,253.475 C 206.9165,259.6002 207.1936,261.2157 209.0531,264.225 C 210.2568,266.1728 211.9018,267.7875 212.7094,267.7875 C 215.3176,267.7875 219.5139,265.0553 221.8969,261.8188 C 223.6692,259.4111 224.8559,258.7391 226.8969,258.975 C 229.0383,259.2225 229.6253,259.8647 229.8969,262.2562 C 230.0837,263.9003 231.5461,267.0483 233.1469,269.225 C 236.7292,274.0961 236.8138,276.2409 233.4907,281.1312 C 231.9994,283.3254 231.1091,285.7497 231.3969,286.85 C 231.6723,287.9029 231.5011,288.7875 231.0219,288.7875 C 229.2265,288.7875 228.0844,284.7064 228.0844,278.3188 C 228.0842,269.8843 226.3189,268.7637 221.4281,274.1 C 218.4589,277.3398 218.0844,278.3694 218.0844,283.3812 C 218.0842,286.4879 218.6136,290.8401 219.2719,293.0375 C 220.4325,296.9109 220.3553,297.1295 217.2407,299.9125 C 215.4734,301.4914 213.1789,302.7875 212.1157,302.7875 C 209.8491,302.7875 206.1343,307.4392 203.3344,313.7875 C 200.998,319.0841 197.6787,322.3566 193.6781,323.35 L 190.8031,324.0688 L 191.5219,317.475 C 192.2119,311.0326 192.1637,310.8931 189.3969,309.1312 C 185.6608,306.7519 185.372,306.3021 183.1781,299.1 C 182.1427,295.7012 179.8913,290.8096 178.1469,288.225 L 174.9594,283.5062 L 176.9594,281.4125 C 181.026,277.0704 182.0072,270.7875 178.6157,270.7875 C 176.7371,270.7875 176.7239,270.6908 178.5219,267.225 C 180.7914,262.8506 179.273,262.3783 175.0844,266.1625 C 169.6467,271.075 167.0604,272.3387 165.9594,270.6312 C 165.2369,269.5113 164.8991,269.5462 164.0844,270.7875 C 162.794,272.7529 162.8214,274.4492 164.2094,278.2875 C 165.5477,281.989 164.6638,288.0521 162.4594,290.2562 C 161.6165,291.0988 159.8523,291.7875 158.5531,291.7875 C 155.4599,291.7875 149.0844,299.454 149.0844,303.1625 C 149.0842,304.636 148.4093,307.469 147.5844,309.4438 C 146.7592,311.4181 146.0844,314.5547 146.0844,316.4125 C 146.0842,320.4827 147.183,320.6405 154.1781,317.6312 C 159.8277,315.2007 163.0844,310.3593 163.0844,304.35 C 163.0842,300.5495 164.8512,295.7875 166.2719,295.7875 C 166.761,295.7875 168.4927,296.4484 170.1157,297.2875 C 174.215,299.4075 174.2913,303.8836 170.2407,305.4125 C 167.8068,306.3311 167.1395,307.4374 165.7094,313.1312 C 164.7172,317.0802 164.2864,321.3134 164.6469,323.5688 C 165.0961,326.3772 164.8587,327.7138 163.6781,328.6938 C 161.5534,330.45669 161.6471,332.06159 163.8344,331.38119 C 167.6575,330.19209 187.5906,327.8163 189.2719,328.35 C 190.8833,328.8614 190.9035,329.185 189.6469,331.59999 C 188.8786,333.07679 187.1473,335.31539 185.7719,336.59999 C 183.7667,338.47299 182.8773,338.75489 181.3031,337.91249 C 178.9698,336.66389 178.0844,337.31659 178.0844,340.31879 C 178.0842,342.92969 174.1248,344.87529 169.5844,344.50619 C 166.9295,344.29059 166.5406,344.61379 166.2407,347.25619 C 165.9692,349.64389 166.583,350.84729 169.3657,353.25619 C 172.3056,355.80219 173.3327,357.93739 175.9594,366.91249 C 179.6673,379.58317 179.7158,380.46039 176.8031,384.09999 L 174.5531,386.91249 L 168.0844,385.44374 C 164.5326,384.62311 161.4958,383.55789 161.3344,383.09999 C 160.2071,379.90587 159.2342,379.45364 156.2407,380.69374 C 152.9178,382.06981 150.507,381.27354 146.3031,377.44374 L 144.0219,375.38119 L 141.8031,377.59999 C 139.0051,380.39777 139.0189,385.80014 141.8344,391.31874 C 143.631,394.84061 143.729,395.60719 142.5219,397.78749 C 141.7684,399.14867 141.135,401.28824 141.1157,402.50624 C 141.0959,403.72433 140.1843,405.19879 139.0844,405.78749 C 137.6707,406.54397 137.0844,407.88359 137.0844,410.34999 C 137.0842,413.40427 137.441,413.90259 139.9907,414.41249 C 142.6666,414.94767 142.9977,415.50344 144.1781,421.44374 C 145.5305,428.24851 147.015,430.01654 153.5844,432.63124 C 155.6685,433.46083 157.1184,435.12214 158.3344,438.06874 C 160.4956,443.30681 160.4649,445.36729 158.2407,449.53749 C 156.6245,452.56707 156.3441,452.69614 154.5219,451.31874 C 150.212,448.06011 147.0916,449.82824 141.7094,458.50624 C 138.7506,463.27653 138.3902,465.95569 140.5219,467.72499 C 142.2688,469.17467 144.0715,468.31249 144.1157,465.97499 C 144.1729,462.91827 147.0844,467.82159 147.0844,470.97499 C 147.0842,473.11187 146.0929,474.46414 142.9281,476.75624 C 140.6454,478.40973 138.1797,479.78749 137.4594,479.78749 C 136.7388,479.78737 135.6022,481.69999 134.9281,484.03749 C 134.2543,486.37487 133.1203,489.17154 132.3969,490.25624 C 131.6736,491.34113 131.0844,493.65679 131.0844,495.41249 C 131.0842,497.16807 129.7043,502.22574 128.0219,506.63124 L 124.9594,514.63124 L 127.1781,518.94374 C 132.9691,530.25211 137.7777,542.77514 137.3031,545.25624 C 136.9389,547.16053 137.6758,548.91504 139.9594,551.75624 C 141.9962,554.29103 143.0824,556.81919 143.1157,558.97499 C 143.1606,561.91517 143.9679,562.86294 150.3657,567.44374 C 154.325,570.27871 163.0229,577.25479 169.6781,582.97499 C 185.2386,596.34917 190.5152,600.19169 197.7094,603.34999 C 200.9311,604.76437 206.5093,607.20979 210.0844,608.78749 C 213.6592,610.36517 222.7734,613.27049 230.3657,615.22499 C 242.4608,618.33887 245.6786,618.77379 256.3657,618.78749 C 268.6996,618.80317 271.07,619.21429 288.5844,624.28749 C 293.5342,625.72127 301.3441,627.53814 305.9594,628.31874 C 310.5744,629.09891 314.4333,629.85514 314.5219,630.00624 C 314.6107,630.15763 315.432,631.51324 316.3657,633.00624 C 317.299,634.49943 318.0844,637.24664 318.0844,639.13124 C 318.0842,642.16093 318.5186,642.72839 321.8344,644.03749 C 323.8967,644.85177 328.9593,646.31389 333.0844,647.28749 C 337.2092,648.26097 342.8344,649.87914 345.5844,650.88124 C 348.3342,651.88333 351.9343,653.01264 353.5844,653.38124 C 356.0287,653.92723 358.2308,655.25499 359.3344,656.66249 C 359.8383,656.85317 361.2212,657.34114 361.8344,657.56874 C 363.0778,657.58321 364.3062,657.66249 365.5531,657.66249 C 370.9497,657.66247 376.317,657.52674 381.6469,657.25624 C 386.977,656.98583 392.2654,656.57189 397.5219,656.03749 C 402.7786,655.50307 408.0016,654.86034 413.1781,654.06874 C 418.3545,653.27701 423.4943,652.32989 428.5844,651.28749 C 433.6742,650.24507 438.7124,649.10534 443.7094,647.81874 C 448.7061,646.53201 453.6561,645.12429 458.5531,643.59999 C 463.4502,642.07567 468.2933,640.41779 473.0844,638.66249 C 477.8752,636.90717 482.6251,635.04844 487.3031,633.06874 C 491.9811,631.08891 496.5881,628.98519 501.1469,626.78749 C 505.7058,624.58977 510.214,622.29034 514.6469,619.88124 C 519.0799,617.47223 523.4402,614.96379 527.7407,612.34999 C 530.3973,610.73507 532.9801,609.00974 535.5844,607.31874 C 533.981,607.24401 532.3915,607.30854 530.7719,607.06874 C 528.4787,606.47421 527.0697,602.83139 527.0844,597.47499 C 527.0942,593.78777 528.3724,591.44389 537.8657,577.78749 C 543.7916,569.26237 551.2285,558.91239 554.3969,554.78749 C 562.9743,543.62027 570.6514,527.62729 571.5219,519.09999 C 571.9051,515.34677 572.8616,510.06229 573.6469,507.34999 C 575.7241,500.17537 575.3374,489.78749 572.9907,489.78749 C 572.5205,489.78737 564.6673,497.37059 555.5531,506.66249 C 546.439,515.95427 538.2115,523.76814 537.2719,524.00624 C 534.4659,524.71753 529.1951,522.86299 528.0844,520.78749 C 527.2196,519.17187 527.5692,518.47824 530.1781,516.56874 C 533.3089,514.27671 555.1486,487.63149 564.9907,474.09999 C 567.8658,470.14667 570.4454,465.52509 570.7094,463.84999 C 571.1974,460.75197 574.1493,453.97709 583.5531,434.28749 L 588.8031,423.28749 L 589.3657,409.28749 C 589.6819,401.58747 589.7244,394.08984 589.4281,392.63124 C 588.6535,388.81303 584.8619,388.41529 577.7407,391.41249 C 571.2505,394.14407 569.0207,393.89609 564.8969,390.03749 C 558.9312,384.45537 558.8609,377.77729 564.8031,381.28749 L 567.7094,382.97499 L 574.6469,377.84999 C 582.1852,372.25669 587.3763,366.53509 595.8031,354.53749 C 603.9896,342.88189 606.0142,342.01759 616.0844,345.91249 C 626.2536,349.84589 627.6373,349.89849 631.7094,346.66249 C 633.7119,345.07089 635.7441,343.78749 636.2407,343.78749 C 638.2139,343.78749 643.577,348.60029 647.9594,354.31879 C 652.4058,360.12079 668.0941,375.78749 669.4594,375.78749 C 670.3499,375.78749 672.0763,371.14479 672.8969,366.56879 C 674.9543,364.72869 676.5684,362.71889 677.9907,360.66249 C 678.2536,355.40409 678.3969,350.14209 678.3969,344.81879 C 678.397,339.42189 678.261,334.05499 677.9907,328.725 C 677.72,323.395 677.3377,318.0751 676.8031,312.8188 C 676.2686,307.5621 675.5949,302.3702 674.8031,297.1938 C 674.0113,292.0171 673.0957,286.8775 672.0531,281.7875 C 671.0105,276.6975 669.8399,271.6283 668.5531,266.6312 C 667.2663,261.6343 665.8586,256.6848 664.3344,251.7875 C 662.8099,246.8902 661.1837,242.0475 659.4281,237.2562 C 657.6726,232.4652 655.7831,227.7467 653.8031,223.0688 C 651.8232,218.3905 649.7509,213.7524 647.5531,209.1938 C 645.3552,204.6348 643.0247,200.1579 640.6157,195.725 C 638.2064,191.2921 635.6981,186.9317 633.0844,182.6312 C 630.4704,178.3309 627.7713,174.0737 624.9594,169.9125 C 622.1472,165.7513 619.2443,161.6781 616.2407,157.6625 C 613.2368,153.6469 610.1171,149.7134 606.9281,145.85 C 603.7392,141.9866 600.4829,138.1796 597.1157,134.475 C 593.7482,130.7704 590.2796,127.1392 586.7407,123.6 C 583.2013,120.0608 579.5702,116.6238 575.8657,113.2562 C 572.1609,109.889 568.3854,106.6013 564.5219,103.4125 C 560.6586,100.2237 556.725,97.134996 552.7094,94.131196 C 548.6936,91.127596 544.5895,88.224496 540.4281,85.412496 C 536.2667,82.600496 532.041,79.870396 527.7407,77.256196 C 523.4401,74.642396 519.0798,72.134096 514.6469,69.724996 C 510.2141,67.315896 505.7057,65.016196 501.1469,62.818796 C 496.5882,60.620896 491.9815,58.517296 487.3031,56.537496 C 482.6248,54.557695 477.8753,52.698895 473.0844,50.943795 C 468.2932,49.188295 463.4505,47.530695 458.5531,46.006195 C 453.6557,44.481995 448.7063,43.074095 443.7094,41.787495 C 438.7123,40.500895 433.6743,39.361095 428.5844,38.318795 C 423.4942,37.276195 418.3547,36.360295 413.1781,35.568795 C 408.0014,34.776995 402.7785,34.103095 397.5219,33.568795 C 392.2655,33.034295 386.9769,32.620495 381.6469,32.349995 C 376.317,32.079495 370.95,31.943695 365.5531,31.943795 z M 197.6469,80.943796 C 195.3205,82.427796 192.9623,83.869096 190.6781,85.412496 C 186.517,88.224496 182.4125,91.127596 178.3969,94.131196 C 174.3812,97.134896 170.4478,100.2237 166.5844,103.4125 C 162.7209,106.6013 158.945,109.8892 155.2407,113.2562 C 151.536,116.6235 147.9047,120.0608 144.3657,123.6 C 140.8264,127.1392 137.3577,130.7704 133.9907,134.475 C 130.6233,138.1796 127.3669,141.9866 124.1781,145.85 C 120.9895,149.7134 117.8692,153.6469 114.8657,157.6625 C 111.8619,161.6781 108.9589,165.7513 106.1469,169.9125 C 104.7432,171.9895 103.439,174.1444 102.0844,176.2562 C 103.2551,175.6104 105.5782,173.4884 108.0844,170.5375 C 111.0036,167.1 120.2907,157.4436 128.7407,149.1 C 139.4365,138.5383 144.707,132.5889 146.0844,129.475 C 147.1724,127.0151 148.716,124.7409 149.4907,124.4438 C 150.265,124.1464 154.4683,121.1868 158.8344,117.85 C 166.0955,112.3006 170.0844,110.4533 170.0844,112.6312 C 170.0843,113.096 169.1374,114.3121 167.9907,115.35 C 166.8437,116.3879 164.2669,119.4964 162.2719,122.2562 C 160.2768,125.0161 153.2125,133.5875 146.5844,141.2875 C 139.9562,148.9875 132.7461,157.5397 130.5531,160.2875 C 128.3607,163.0353 125.3321,166.6353 123.8031,168.2875 C 116.3225,176.3712 100.5093,203.1978 98.1469,211.85 C 96.7355,217.0188 96.9964,221.9448 98.7094,222.5062 C 99.3393,222.7128 102.0261,220.101 104.6781,216.725 C 107.3306,213.349 112.9035,208.0566 117.0531,204.9438 C 124.7839,199.1443 125.9612,198.5248 146.5844,189.725 C 159.9337,184.0289 162.2159,182.3401 165.6157,175.6625 C 166.9055,173.1286 171.8738,166.8286 176.6469,161.6625 C 181.4199,156.4964 188.3144,148.4925 191.9594,143.85 C 195.6042,139.2075 202.7469,130.9397 207.8344,125.5062 C 212.9218,120.0729 217.0844,114.9875 217.0844,114.1938 C 217.0843,113.3995 216.5412,111.9131 215.8969,110.8812 C 214.9379,109.3459 215.2188,107.9619 217.4907,103.3188 C 219.0171,100.1984 220.1237,97.482696 219.9281,97.287496 C 219.5001,96.859396 211.2912,98.366696 208.8344,99.318796 C 207.3995,99.874596 207.0844,99.438696 207.0844,96.912496 C 207.0843,94.500196 207.7358,93.501996 210.0844,92.287496 C 211.7343,91.434296 213.0844,90.284396 213.0844,89.756196 C 213.0843,89.228296 210.2719,87.385596 206.8344,85.662496 C 203.3968,83.939396 200.3727,82.368996 200.1469,82.162496 C 200.0784,82.099896 200.0455,82.024896 200.0219,81.943796 C 198.8516,81.369396 198.6307,81.383996 197.6469,80.943796 z M 288.3344,86.818796 C 287.8693,86.804496 287.4208,86.831096 286.9907,86.849996 C 281.8263,87.077196 279.0844,89.637096 279.0844,94.349996 C 279.0843,96.545596 278.3832,98.002796 276.8344,99.037496 C 274.6091,100.5239 274.5939,100.553 276.4907,102.6625 C 278.5202,104.92 279.939,104.8291 285.5844,102.0375 C 290.656,99.529496 296.0844,93.663396 296.0844,90.693796 C 296.0843,88.500996 295.5238,87.925396 292.9594,87.412496 C 291.2768,87.076096 289.7294,86.860996 288.3344,86.818796 z M 315.0844,92.881196 C 313.3282,92.886996 312.7042,93.618896 311.2094,96.037496 C 310.0265,97.951196 309.0844,101.0486 309.0844,102.9125 C 309.0843,107.9937 317.4684,127.8876 320.2719,129.4438 C 323.8055,131.4051 329.9037,131.0532 333.7719,128.6625 C 337.624,126.2817 337.3417,125.6297 331.5844,123.9438 C 329.3843,123.2993 326.4594,121.8857 325.0844,120.8188 C 322.6648,118.9411 322.5844,118.5004 322.5844,106.9125 C 322.5843,100.327 322.2639,94.654596 321.8969,94.287496 C 321.5297,93.920396 319.466,93.358596 317.3031,93.068796 C 316.3921,92.946496 315.6697,92.879396 315.0844,92.881196 z M 256.2719,100.0688 C 255.4153,100.1975 254.3738,100.7921 253.2719,101.8188 C 250.4489,104.4486 251.3379,105.9655 255.4281,105.5688 C 258.0413,105.315 258.5844,104.846 258.5844,102.7875 C 258.5843,100.9782 257.7985,100.0621 256.6157,100.0688 C 256.5005,100.0693 256.3943,100.0502 256.2719,100.0688 z M 250.6157,112.3812 C 250.4148,112.3738 250.208,112.3859 249.9907,112.4125 C 248.5398,112.5898 246.5695,113.5597 242.6469,115.725 C 236.5445,119.0935 235.2391,120.3006 234.3031,123.35 C 233.27,126.7166 233.4701,127.3085 236.8657,132.35 C 238.8705,135.327 241.0243,137.7875 241.6781,137.7875 C 242.3322,137.7875 243.7775,136.2563 244.8657,134.4125 C 246.0504,132.4042 248.6911,130.1901 251.4594,128.85 C 256.3782,126.4688 256.5029,126.1194 255.4594,118.5062 C 254.976,114.9802 254.2857,113.7249 252.3657,112.85 C 251.7629,112.5754 251.2175,112.4034 250.6157,112.3812 z M 145.5219,200.3812 C 144.7378,200.3248 144.1025,201.7272 142.6781,204.5375 C 140.6,208.6386 140.0844,211.1366 140.0844,216.6625 C 140.0843,222.9911 140.3138,223.8091 142.7094,225.6938 C 144.1585,226.8335 145.9145,227.7875 146.6157,227.7875 C 147.3165,227.7875 150.7286,225.875 154.2094,223.5375 C 157.6901,221.2 161.1173,218.1625 161.8031,216.7875 C 163.1474,214.0931 163.5701,203.7679 162.3344,203.7875 C 161.9218,203.794 159.1094,204.4702 156.0844,205.2875 C 150.9911,206.6636 150.4825,206.6561 149.3657,205.0375 C 147.2499,201.9725 146.3059,200.4376 145.5219,200.3812 z M 437.6469,279.975 C 438.9602,279.9458 453.0539,288.2967 457.7407,291.9125 C 462.1668,295.3274 463.4516,295.8521 466.0219,295.2875 C 468.8352,294.6696 469.732,295.2555 477.3344,302.8188 C 481.8675,307.3283 487.4522,312.5574 489.7407,314.4438 C 495.1252,318.8812 501.4827,328.106 500.8031,330.47499 C 500.5187,331.46619 499.9805,333.07499 499.5844,334.03749 C 499.0194,335.40949 499.352,335.78749 501.1781,335.78749 L 503.5219,335.78749 L 501.2719,337.34999 C 499.8957,338.31389 495.8784,339.11189 490.8031,339.44379 C 486.2718,339.73979 481.5837,340.61319 480.3657,341.38119 C 477.4678,343.20809 477.6926,343.30199 474.6781,339.34999 C 472.3041,336.23769 472.0844,335.08299 472.0844,326.975 C 472.0842,317.1383 471.8815,316.7877 465.5844,314.7562 C 455.9814,311.6587 446.1234,305.6585 440.5844,299.5375 C 435.6577,294.0935 435.0844,292.9633 435.0844,289.0375 C 435.0842,285.4793 436.0643,281.8689 437.5531,280.0062 C 437.5679,279.9874 437.6046,279.9759 437.6469,279.975 z M 382.9281,325.7562 C 385.0359,325.6616 387.3915,326.0145 390.0844,326.7562 C 392.0091,327.2864 398.2938,328.4268 404.0531,329.2875 C 415.5692,331.00839 418.4459,332.63189 419.6469,338.09999 C 420.2302,340.75499 419.8756,341.55449 416.9594,344.03749 C 415.1043,345.61689 412.1816,348.25539 410.4907,349.88119 C 407.8457,352.42429 406.2686,352.95139 399.2094,353.75619 C 394.6959,354.27119 390.5481,354.97349 389.9907,355.31879 C 389.4329,355.66289 387.847,355.19669 386.4594,354.28749 C 384.4797,352.99049 383.615,352.88519 382.4907,353.81879 C 381.7022,354.47239 381.0844,355.68569 381.0844,356.50619 C 381.0842,357.78059 380.6822,357.75389 378.4907,356.31879 C 375.5596,354.39789 373.6629,355.33229 372.7094,359.13119 C 372.3951,360.38289 370.9749,362.01229 369.5844,362.75619 C 368.1936,363.50069 366.2075,365.58409 365.1469,367.38119 C 362.5516,371.78049 357.9179,373.97479 350.0531,374.53749 L 343.4907,375.00619 L 340.6469,370.69379 C 337.8074,366.40229 337.7781,366.31529 338.3657,354.63119 C 338.7874,346.23859 339.5253,341.67969 340.8969,338.59999 C 341.9529,336.22949 343.1008,333.04999 343.4594,331.53749 C 344.0484,329.0511 344.5293,328.7875 348.5219,328.7875 C 353.951,328.7875 358.0844,330.25819 358.0844,332.19379 C 358.0842,334.19019 362.8646,337.78749 365.5219,337.78749 C 366.9469,337.78749 368.9005,336.20009 371.1469,333.19379 C 374.7936,328.3136 378.2905,325.9647 382.9281,325.7562 z M 249.3031,364.97499 C 250.1409,364.93179 251.1644,365.47139 252.3657,366.59999 C 254.6437,368.74039 254.7743,368.78749 258.0531,368.78749 C 259.328,368.78749 260.7376,370.12209 261.9907,372.53749 C 266.1028,380.46477 268.9404,382.64039 276.5844,383.78749 C 280.4342,384.36517 285.0077,385.31444 286.7719,385.88124 C 290.6987,387.14263 294.0844,392.23704 294.0844,396.94374 C 294.0842,399.96351 294.8837,401.07179 300.5844,405.78749 C 305.7679,410.07557 307.0844,411.73279 307.0844,413.97499 C 307.0842,416.11837 307.5617,416.78749 309.0844,416.78749 C 310.1826,416.78737 312.8502,418.38789 315.0219,420.34999 C 318.1667,423.19107 319.6405,423.85269 322.2719,423.59999 C 325.7618,423.26467 325.742,423.35179 324.3969,416.53749 C 323.8851,413.94457 324.0524,413.78749 327.4594,413.78749 C 329.4466,413.78737 331.0815,414.12499 331.0844,414.53749 C 331.0869,414.94987 332.1157,416.56914 333.3657,418.13124 C 335.6108,420.93713 335.6683,420.93009 337.9281,419.09999 C 339.854,417.54027 340.0451,416.82934 339.2094,414.63124 C 338.4425,412.61473 336.3254,411.24444 329.8969,408.56874 C 323.1601,405.76441 320.9294,404.27439 318.2094,400.72499 L 314.8657,396.31874 L 317.8969,395.53749 C 321.3049,394.65437 322.5844,393.23979 322.5844,390.28749 C 322.5842,388.76877 323.917,387.85584 328.2719,386.38124 C 333.6305,384.56713 334.1047,384.54734 336.5219,386.13124 C 338.7563,387.59523 339.0844,388.53249 339.0844,393.28749 C 339.0842,398.30177 339.2761,398.79424 341.6157,399.38124 C 344.0674,399.99653 344.0884,400.07444 342.3969,401.94374 C 340.8854,403.61381 340.859,404.02364 342.1157,404.81874 C 342.9186,405.32661 343.9218,405.74794 344.3344,405.75624 C 344.7467,405.76463 345.0844,406.68749 345.0844,407.78749 C 345.0842,409.39277 345.7479,409.78749 348.4594,409.78749 C 350.839,409.78747 352.2653,410.44324 353.3031,412.00624 C 354.7706,414.21673 354.7879,414.20594 358.8344,412.38124 C 361.0682,411.37393 363.4166,410.86284 364.0531,411.25624 C 364.6898,411.64973 367.2308,411.69004 369.7094,411.31874 C 373.5737,410.73901 374.3916,410.18384 375.3031,407.56874 L 376.3657,404.53749 L 383.7719,405.00624 C 390.6249,405.44593 391.447,405.27969 394.8657,402.78749 C 396.899,401.30487 400.4831,398.00569 402.8031,395.47499 L 407.0219,390.88124 L 408.0219,394.56874 C 408.5862,396.60001 409.0503,399.33594 409.0531,400.63124 C 409.056,401.92683 410.2134,404.33984 411.6157,406.00624 C 413.4269,408.15903 414.0117,409.80509 413.6469,411.66249 C 412.3309,418.36397 412.6929,422.45524 414.8657,425.50624 C 416.0749,427.20483 417.0844,429.73829 417.0844,431.16249 C 417.0842,434.97157 410.6587,439.25064 402.6781,440.75624 C 396.9327,441.84033 395.9925,441.76374 393.4281,440.13124 C 391.8566,439.13073 390.2118,437.73819 389.7719,437.03749 C 389.3321,436.33677 387.1946,435.78749 385.0219,435.78749 C 381.7126,435.78737 381.0844,436.10954 381.0844,437.81874 C 381.0842,438.94051 380.1545,441.66124 379.0219,443.88124 C 377.5149,446.83543 377.2357,448.27769 378.0219,449.22499 C 378.8529,450.22607 377.9764,451.01509 374.1469,452.66249 C 371.4243,453.83367 367.5721,454.78749 365.5844,454.78749 C 363.5963,454.78737 360.6009,455.48509 358.9281,456.34999 C 356.2479,457.73587 355.4662,457.76504 352.2407,456.50624 C 349.7285,455.52613 347.6434,455.35104 345.5844,455.94374 C 343.4064,456.57051 341.5063,456.33859 338.7094,455.09999 L 334.8657,453.38124 L 328.3657,456.81874 C 320.2526,461.12151 318.6565,463.33689 319.3344,469.34999 C 319.7541,473.07507 319.47,474.26799 317.7719,475.84999 C 316.6316,476.91237 315.4557,477.70474 315.1469,477.63124 C 314.8382,477.55773 312.3344,476.69594 309.5844,475.69374 C 306.8342,474.69121 302.1868,473.84274 299.2719,473.81874 C 293.8072,473.77351 289.9027,472.30589 284.3657,468.16249 C 281.5776,466.07627 280.1716,465.77954 273.2094,465.88124 C 266.6529,465.97703 264.2386,465.53419 259.7407,463.47499 C 252.8842,460.33597 251.6209,457.50364 255.6157,454.31874 L 258.3657,452.13124 L 255.8344,450.16249 C 251.865,447.04027 249.6382,441.99949 250.9594,439.09999 C 252.415,435.90477 252.3925,435.78749 250.0531,435.78749 C 248.9455,435.78737 247.1999,435.26924 246.1781,434.63124 C 244.6721,433.69083 243.7802,433.84934 241.3657,435.56874 C 238.8018,437.39411 237.8364,437.55169 234.6157,436.66249 C 230.5097,435.52877 220.1985,435.93324 210.0844,437.63124 C 206.5092,438.23143 201.3374,439.01239 198.6157,439.34999 C 194.7615,439.82787 192.992,440.68289 190.6157,443.22499 C 188.923,445.03517 185.3948,447.22464 182.6781,448.13124 C 177.8656,449.73723 177.6608,449.69824 170.9281,447.06874 C 164.89,444.71031 164.0844,444.08959 164.0844,441.78749 C 164.0842,438.27327 169.1976,436.24304 173.8969,437.88124 C 176.5173,438.79463 177.6017,438.65949 180.3031,437.09999 C 185.0809,434.34177 187.0824,429.61894 187.0844,421.00624 L 187.0844,413.75624 L 194.0844,406.78749 C 200.8448,400.04017 201.0844,399.63719 201.0844,394.91249 C 201.0842,390.91817 201.4964,389.73104 203.3657,388.50624 C 205.4246,387.15703 205.9815,387.18299 209.0844,388.78749 C 212.3973,390.50077 212.6801,390.48894 216.0531,388.75624 C 217.9844,387.76413 220.3668,385.60174 221.3344,383.94374 C 222.3016,382.28551 225.0641,379.83109 227.4907,378.47499 L 231.9281,376.00624 L 232.5531,378.63124 C 234.7959,387.75253 242.6741,394.32809 264.5219,405.28749 C 275.9571,411.02357 276.5476,411.46209 277.9907,415.53749 C 279.7177,420.41607 281.1297,420.51724 282.4594,415.88124 C 283.1627,413.42823 282.9851,411.80874 281.6781,409.06874 C 279.6793,404.87741 280.7949,403.41759 285.2407,404.34999 C 291.7467,405.71447 287.8253,399.75904 278.5844,394.25624 C 273.5027,391.23033 272.003,390.77624 268.7719,391.31874 C 265.0226,391.94771 264.8029,391.83394 256.0219,382.94374 C 247.7106,374.52869 247.0844,373.58659 247.0844,369.78749 C 247.0842,366.69469 247.9067,365.04709 249.3031,364.97499 z M 557.3969,385.41249 C 558.5561,385.34997 559.036,386.86419 559.0531,390.03749 C 559.0694,393.03337 553.1429,405.62714 550.8031,407.56874 C 548.5259,409.45831 543.9747,409.71389 538.6469,408.22499 C 534.9495,407.19167 532.6704,407.11214 529.6157,407.88124 C 525.9582,408.80213 524.8471,408.58464 518.8031,405.75624 C 512.146,402.64103 512.0844,402.55494 512.0844,398.63124 C 512.0842,393.52363 513.5786,390.76909 516.3657,390.78749 C 517.5836,390.79547 521.7135,392.35029 525.5531,394.22499 C 532.1828,397.46167 532.8013,397.56509 538.0219,396.59999 C 545.2058,395.27197 548.7306,393.39399 553.3657,388.41249 C 555.174,386.46867 556.4955,385.46109 557.3969,385.41249 z M 232.3031,387.03749 C 230.5366,386.99897 228.0844,395.05049 228.0844,401.09999 C 228.0843,404.81607 227.3945,408.18564 226.1469,410.63124 C 224.2548,414.33983 224.2513,414.49309 226.0844,417.28749 C 227.9525,420.13537 231.5085,422.68924 233.7407,422.75624 C 234.3887,422.77573 235.654,422.06134 236.5219,421.19374 C 240.0038,417.71161 240.0907,416.31069 237.4281,406.66249 C 236.0047,401.50347 234.5544,395.05499 234.2094,392.34999 C 233.8643,389.64497 233.0651,387.26974 232.4594,387.06874 C 232.4038,387.05021 232.3603,387.03869 232.3031,387.03749 z M 263.5844,422.91249 C 262.7279,422.95267 262.0764,423.38674 261.1157,424.25624 C 259.9956,425.26973 259.0707,425.69124 259.0531,425.19374 C 258.9801,423.11331 256.0844,428.35544 256.0844,430.56874 C 256.0843,432.75561 256.3975,432.95539 259.3344,432.41249 C 261.1218,432.08197 263.9344,432.19654 265.5844,432.69374 C 270.2418,434.09641 272.6582,433.93829 274.8969,432.03749 C 276.4081,430.75417 276.8125,429.55399 276.3969,427.53749 C 275.9273,425.25947 275.3086,424.78749 272.7719,424.78749 C 271.0874,424.78737 268.2349,424.25319 266.4281,423.59999 C 265.3651,423.21547 264.5954,422.96299 263.9594,422.91249 C 263.8268,422.90187 263.7067,422.90669 263.5844,422.91249 z M 343.7719,426.00624 C 342.7112,426.12153 341.7443,426.69779 340.5844,427.78749 C 338.8336,429.43207 337.4879,429.85134 335.6157,429.38124 C 333.523,428.85603 333.0844,429.08094 333.0844,430.69374 C 333.0843,435.15961 342.1534,436.33594 346.6781,432.44374 C 349.8794,429.69001 349.4247,427.16514 345.5531,426.19374 C 345.0727,426.07301 344.629,426.00924 344.2094,426.00624 C 344.0519,426.00513 343.9234,425.98994 343.7719,426.00624 z M 430.3344,458.94374 C 433.618,458.98041 439.9789,462.32909 447.6469,468.09999 C 453.1289,472.22547 456.169,473.73984 460.9594,474.75624 C 465.2969,475.67683 467.8134,476.83954 469.3657,478.63124 C 474.7268,484.82003 481.4391,490.78749 483.0531,490.78749 C 484.0184,490.78737 488.1189,491.91914 492.1781,493.31874 C 496.2374,494.71791 501.4968,496.34219 503.8344,496.91249 C 507.257,497.74747 508.0844,498.36249 508.0844,500.16249 C 508.0842,501.70457 509.2403,503.04834 511.8344,504.50624 C 515.4252,506.52453 520.0844,511.65599 520.0844,513.59999 C 520.0842,515.49187 517.36,516.51479 510.7719,517.09999 C 504.3196,517.67297 503.96,517.58224 502.9281,515.31874 C 501.5118,512.21071 498.4877,511.50719 494.8031,513.41249 C 491.939,514.89337 491.7249,514.83329 488.6469,511.84999 C 486.3002,509.57517 484.5259,508.78749 481.8969,508.78749 C 478.1346,508.78737 475.0205,506.04709 465.6781,494.53749 C 462.4219,490.52597 461.2927,489.78749 458.3657,489.78749 C 455.5129,489.78737 453.8131,488.73684 448.7407,483.94374 C 445.3505,480.74021 440.5345,476.95529 438.0531,475.53749 C 435.5718,474.11957 431.5615,471.21154 429.1469,469.06874 C 424.852,465.25711 424.7983,465.11289 426.1781,462.22499 C 426.9685,460.57057 428.5136,459.14619 429.7094,458.97499 C 429.9001,458.94757 430.1153,458.94114 430.3344,458.94374 z M 131.1469,472.78749 C 130.6338,472.78737 129.9289,473.67084 129.5844,474.75624 C 129.2397,475.84193 127.9402,477.52944 126.7094,478.50624 C 125.4784,479.48313 124.1285,480.84999 123.7094,481.53749 C 122.4659,483.57707 129.1124,483.10029 130.6781,481.03749 C 132.1955,479.03857 132.5529,472.78749 131.1469,472.78749 z"
         id="path2653" />
      <path
         sodipodi:type="inkscape:offset"
         inkscape:radius="-25.705124"
         inkscape:original="M 2644.9688 22.75 C 2468.5298 22.75 2325.3126 166.04419 2325.3125 342.59375 C 2325.3125 378.10055 2331.1856 412.20399 2341.875 444.125 C 2343.0969 445.38253 2344.2606 446.69732 2345.5 447.9375 C 2349.6973 452.1374 2353.9816 456.22288 2358.375 460.21875 C 2362.7684 464.21462 2367.2619 468.1222 2371.8438 471.90625 C 2376.4255 475.6903 2381.1128 479.34183 2385.875 482.90625 C 2390.6372 486.47067 2395.4714 489.94424 2400.4062 493.28125 C 2405.3412 496.61826 2410.3688 499.8357 2415.4688 502.9375 C 2420.5687 506.0393 2425.7429 509.01621 2431 511.875 C 2436.2571 514.73379 2441.5935 517.48576 2447 520.09375 C 2452.4065 522.70174 2457.8895 525.18186 2463.4375 527.53125 C 2468.9855 529.88064 2474.5995 532.07325 2480.2812 534.15625 C 2485.9631 536.23925 2491.7234 538.19118 2497.5312 540 C 2503.3391 541.80882 2509.1989 543.47317 2515.125 545 C 2521.0511 546.52683 2527.026 547.91919 2533.0625 549.15625 C 2539.099 550.39331 2545.2045 551.49801 2551.3438 552.4375 C 2557.4829 553.37699 2563.6724 554.14713 2569.9062 554.78125 C 2576.1402 555.41537 2582.3978 555.89779 2588.7188 556.21875 C 2595.0397 556.53971 2601.4122 556.71875 2607.8125 556.71875 C 2614.2128 556.71875 2620.5854 556.53971 2626.9062 556.21875 C 2633.2272 555.89779 2639.4848 555.41537 2645.7188 554.78125 C 2651.9527 554.14713 2658.1422 553.37699 2664.2812 552.4375 C 2670.4204 551.49801 2676.526 550.39331 2682.5625 549.15625 C 2688.599 547.91919 2694.5739 546.52683 2700.5 545 C 2706.4261 543.47317 2712.2858 541.80882 2718.0938 540 C 2723.9016 538.19118 2729.6618 536.23925 2735.3438 534.15625 C 2741.0256 532.07325 2746.6395 529.88064 2752.1875 527.53125 C 2757.7355 525.18186 2763.2185 522.70174 2768.625 520.09375 C 2774.0315 517.48576 2779.3679 514.73379 2784.625 511.875 C 2789.8821 509.01621 2795.0564 506.0393 2800.1562 502.9375 C 2805.2562 499.8357 2810.2838 496.61826 2815.2188 493.28125 C 2820.1537 489.94424 2824.9878 486.47067 2829.75 482.90625 C 2834.5122 479.34183 2839.1996 475.6903 2843.7812 471.90625 C 2848.363 468.1222 2852.8566 464.21462 2857.25 460.21875 C 2861.6434 456.22288 2865.9277 452.1374 2870.125 447.9375 C 2874.3223 443.7376 2878.413 439.42739 2882.4062 435.03125 C 2886.3996 430.63511 2890.3121 426.14708 2894.0938 421.5625 C 2897.8754 416.97792 2901.5316 412.29648 2905.0938 407.53125 C 2908.6559 402.76602 2912.1026 397.90683 2915.4375 392.96875 C 2918.7724 388.03067 2921.9939 383.00938 2925.0938 377.90625 C 2928.1936 372.80312 2931.1743 367.63539 2934.0312 362.375 C 2936.8882 357.11461 2939.6436 351.75361 2942.25 346.34375 C 2944.8564 340.93389 2947.3396 335.45778 2949.6875 329.90625 C 2952.0354 324.35472 2954.2308 318.7479 2956.3125 313.0625 C 2958.1344 308.0866 2959.8251 303.0416 2961.4375 297.96875 C 2939.7107 142.52868 2806.2672 22.750001 2644.9688 22.75 z "
         style="opacity:0.09790213;fill:url(#linearGradient3846);fill-opacity:1;stroke:none;stroke-width:16.68700027;stroke-linejoin:round;stroke-miterlimit:4;stroke-dasharray:none;stroke-opacity:1"
         id="path2650"
         d="M 2644.9688,48.46875 C 2482.4473,48.46875 2351.0313,179.94553 2351.0312,342.59375 C 2351.0313,373.37611 2355.9676,402.89006 2364.75,430.78125 C 2368.325,434.32837 2371.9225,437.79156 2375.6562,441.1875 C 2379.7664,444.92579 2383.9738,448.58798 2388.2188,452.09375 C 2392.4239,455.56679 2396.7835,458.946 2401.2812,462.3125 C 2405.7762,465.67688 2410.2816,468.93609 2414.8125,472 C 2419.3877,475.09373 2424.0471,478.07043 2428.8125,480.96875 C 2433.5561,483.85385 2438.3849,486.61864 2443.2812,489.28125 C 2448.207,491.95983 2453.1615,494.52814 2458.1562,496.9375 C 2463.1811,499.36141 2468.3024,501.68724 2473.4688,503.875 C 2478.5712,506.03572 2483.7789,508.07128 2489.125,510.03125 C 2494.4078,511.96797 2499.7852,513.78621 2505.1875,515.46875 C 2510.5828,517.14907 2516.0111,518.67151 2521.5312,520.09375 C 2527.0712,521.5211 2532.6304,522.82354 2538.2188,523.96875 C 2543.8642,525.12568 2549.5388,526.16206 2555.2188,527.03125 C 2560.8806,527.89769 2566.6466,528.62333 2572.5,529.21875 C 2578.3168,529.81044 2584.155,530.23287 2590.0312,530.53125 C 2595.9619,530.83239 2601.8916,531 2607.8125,531 C 2613.7334,531 2619.6633,530.83239 2625.5938,530.53125 C 2631.47,530.23287 2637.3081,529.81044 2643.125,529.21875 C 2648.9785,528.62333 2654.7447,527.89768 2660.4062,527.03125 C 2666.0862,526.16204 2671.7608,525.12566 2677.4062,523.96875 C 2682.9946,522.82354 2688.5538,521.5211 2694.0938,520.09375 C 2699.6138,518.67154 2705.0418,517.14915 2710.4375,515.46875 C 2715.8397,513.78627 2721.2167,511.96809 2726.5,510.03125 C 2731.846,508.07137 2737.0536,506.03579 2742.1562,503.875 C 2747.3226,501.68724 2752.4439,499.36141 2757.4688,496.9375 C 2762.4635,494.52814 2767.418,491.95983 2772.3438,489.28125 C 2777.2403,486.61854 2782.0694,483.8536 2786.8125,480.96875 C 2791.578,478.07039 2796.2372,475.09378 2800.8125,472 C 2805.3432,468.93634 2809.8486,465.67704 2814.3438,462.3125 C 2818.8417,458.94585 2823.2017,455.56642 2827.4062,452.09375 C 2831.6515,448.58764 2835.8588,444.92559 2839.9688,441.1875 C 2844.0639,437.46286 2848.0308,433.69041 2851.9375,429.78125 C 2855.8219,425.89446 2859.6339,421.86859 2863.375,417.75 C 2867.1324,413.61356 2870.7662,409.44214 2874.25,405.21875 C 2877.7409,400.98662 2881.1541,396.60089 2884.5,392.125 C 2887.8056,387.70298 2891.0102,383.20588 2894.125,378.59375 C 2897.2337,373.99064 2900.2433,369.30648 2903.125,364.5625 C 2906.0231,359.79154 2908.7896,354.96932 2911.4375,350.09375 C 2914.107,345.17854 2916.6799,340.19762 2919.0938,335.1875 C 2921.5271,330.13691 2923.8226,325.05456 2926,319.90625 C 2928.1685,314.77889 2930.236,309.54857 2932.1875,304.21875 C 2933.1844,301.49617 2934.0859,298.614 2935.0312,295.78125 C 2912.6053,155.65664 2791.5358,48.468751 2644.9688,48.46875 z"
         transform="translate(-2279.3952,-17.761371)" />
      <path
         transform="matrix(0.6514474,0,0,0.4875785,291.1098,246.39792)"
         d="M 414.28571,-116.20924 A 300,300 0 1 1 -185.71429,-116.20924 A 300,300 0 1 1 414.28571,-116.20924 z"
         sodipodi:ry="300"
         sodipodi:rx="300"
         sodipodi:cy="-116.20924"
         sodipodi:cx="114.28571"
         id="path3620"
         style="opacity:0.34615383;fill:url(#linearGradient3848);fill-opacity:1;stroke:none;stroke-width:16.68700027;stroke-linejoin:round;stroke-miterlimit:4;stroke-dasharray:none;stroke-opacity:1"
         sodipodi:type="arc" />
      <path
         sodipodi:type="arc"
         style="opacity:0.61188809;fill:url(#linearGradient3850);fill-opacity:1;stroke:none;stroke-width:20.99734879;stroke-linejoin:round;stroke-miterlimit:4;stroke-dasharray:none;stroke-opacity:1;filter:url(#filter3943)"
         id="path3633"
         sodipodi:cx="2417.0195"
         sodipodi:cy="853.11951"
         sodipodi:rx="54.282944"
         sodipodi:ry="54.282944"
         d="M 2471.3025,853.11951 A 54.282944,54.282944 0 1 1 2362.7366,853.11951 A 54.282944,54.282944 0 1 1 2471.3025,853.11951 z"
         transform="matrix(1.7894737,0,0,1.1301938,-3970.4368,-363.10606)"
         clip-path="url(#clipPath3957)" />
      <path
         id="path3965"
         d="M 338.3106,33.332595 C 340.6452,33.118495 342.9928,32.963695 345.3419,32.801295 C 342.3722,32.493795 338.9699,32.189495 336.8732,32.238795 C 337.7041,32.414395 338.1353,32.801795 338.3106,33.332595 z"
         style="fill:#94b2fd;fill-opacity:1;stroke:none;stroke-width:16.68700027;stroke-linejoin:round;stroke-miterlimit:4;stroke-dasharray:none;stroke-opacity:1" />
      <path
         style="fill:#000000;fill-opacity:1;stroke:none;stroke-width:2.70912457;stroke-linejoin:miter;stroke-miterlimit:4;stroke-dasharray:none;stroke-opacity:1;filter:url(#filter3689)"
         d="M 3060.8378,234.85081 C 3053.62,207.5353 3052.6299,192.59618 3035.6166,173.0114 C 2967.5074,233.08835 2959.4393,302.41383 3005.813,360.5085 C 2995.244,350.63015 2971.4761,343.00921 2960.2065,297.46764 C 2844.518,465.81566 2944.1143,526.85237 2972.0964,572.35688 C 2950.7008,574.93393 2893.11,503.14364 2892.8609,460.58308 C 2819.2059,496.51794 2921.3882,577.68758 2908.1555,614.36599 C 2906.1968,582.17565 2853.0814,539.90796 2849.5585,541.79775 C 2893.9154,597.15363 2876.2224,638.87008 2883.5713,654.46217 L 2895.9921,669.21354 C 2931.8601,668.88562 2982.2973,683.40655 2993.1801,713.85885 C 2998.7886,674.52566 2935.4946,642.33787 2935.4946,633.40452 C 3020.6804,654.27761 3043.0174,717.12764 3121.0232,627.8352 C 3088.1825,642.08376 3022.6031,622.84739 2986.6391,581.63493 C 3014.183,584.31222 3133.1265,665.18581 3172.7131,563.6941 C 3164.636,562.31966 3150.3981,562.53024 3137.1655,559.0942 C 3191.3499,554.74089 3230.026,516.50061 3233.6128,398.7149 C 3219.521,404.38414 3191.9604,446.2243 3176.3219,443.64746 C 3214.301,391.07782 3267.3063,350.38219 3217.1022,238.99971 C 3212.1185,252.22808 3201.4766,261.8744 3193.9152,264.79498 C 3177.283,169.44964 3133.6388,124.28475 3069.2344,85.166081 C 3085.4086,152.17888 3080.8966,185.82053 3060.8378,234.85081 z"
         id="path3607"
         sodipodi:nodetypes="cccccccccccccccccccccc"
         clip-path="url(#clipPath3695)"
         transform="translate(-2521.3481,-43.560284)" />
    </g>
    <g
       id="g3799"
       transform="translate(2.8571429,0)">
      <path
         sodipodi:nodetypes="cccccccccccccccccccccc"
         id="path3585"
         d="M 539.4896,191.29053 C 532.2718,163.97502 531.2817,149.0359 514.2684,129.45112 C 446.1592,189.52807 438.0911,258.85355 484.4648,316.94822 C 473.8958,307.06987 450.1279,299.44893 438.8583,253.90736 C 323.1698,422.25538 422.7661,483.29209 450.7482,528.7966 C 429.3526,531.37365 371.7618,459.58336 371.5127,417.0228 C 297.8577,452.95766 400.04,534.1273 386.8073,570.80571 C 384.8486,538.61537 331.7332,496.34768 328.2103,498.23747 C 372.5672,553.59335 354.8742,595.3098 362.2231,610.90189 L 374.6439,625.65326 C 410.5119,625.32534 460.9491,639.84627 471.8319,670.29857 C 477.4404,630.96538 414.1464,598.77759 414.1464,589.84424 C 499.3322,610.71733 521.6692,673.56736 599.675,584.27492 C 566.8343,598.52348 501.2549,579.28711 465.2909,538.07465 C 492.8348,540.75194 611.7783,621.62553 651.3649,520.13382 C 643.2878,518.75938 629.0499,518.96996 615.8173,515.53392 C 670.0017,511.18061 708.6778,472.94033 712.2646,355.15462 C 698.1728,360.82386 670.6122,402.66402 654.9737,400.08718 C 692.9528,347.51754 745.9581,306.82191 695.754,195.43943 C 690.7703,208.6678 680.1284,218.31412 672.567,221.2347 C 655.9348,125.88936 612.2906,80.724466 547.8862,41.605797 C 564.0604,108.6186 559.5484,142.26025 539.4896,191.29053 z"
         style="fill:#fed604;fill-opacity:1;stroke:url(#radialGradient3836);stroke-width:2.70912457;stroke-linejoin:miter;stroke-miterlimit:4;stroke-dasharray:none;stroke-opacity:1" />
      <path
         id="path3587"
         d="M 610.0619,213.66133 C 597.2123,331.30486 532.8628,433.76907 454.6242,518.19847 C 399.886,577.26787 320.5146,636.5795 268.3579,663.97933 C 252.7502,672.17858 237.6815,678.95996 223.3924,684.28843 C 220.7063,685.29014 218.4882,686.71066 216.7886,688.37022 L 218.647,691.65546 C 230.1017,687.32455 243.8139,684.78626 258.5683,684.78626 C 268.8833,684.78626 278.6855,686.01649 287.5719,688.23748 C 314.5305,674.57861 378.4805,631.67441 434.647,573.21879 C 478.4322,527.6494 614.1043,390.06036 610.0619,213.66133 z"
         style="fill:url(#radialGradient3838);fill-opacity:1;stroke-width:1px"
         sodipodi:nodetypes="csssccsccc" />
      <path
         style="opacity:0.31419582;fill:url(#linearGradient3840);fill-opacity:1;stroke:none;stroke-width:2.70912457;stroke-linejoin:miter;stroke-miterlimit:4;stroke-dasharray:none;stroke-opacity:1"
         d="M 547.8777,41.612608 C 564.0518,108.62541 559.5614,142.26983 539.5027,191.30011 C 532.285,163.9846 531.2972,149.04114 514.2839,129.45636 C 446.1748,189.53331 438.0977,258.86169 484.4714,316.95636 C 473.9024,307.07802 450.116,299.43543 438.8464,253.89386 C 366.2478,359.538 378.4422,422.931 404.5027,466.73761 C 451.4197,405.48052 512.3943,355.61649 583.0196,322.14579 C 585.0164,316.82751 593.8032,312.78741 597.1251,316.07826 C 634.7351,299.61832 674.325,287.76463 716.1901,281.17511 C 716.9549,257.75832 711.3314,229.98804 695.7527,195.42511 C 690.769,208.65349 680.1266,218.31703 672.5651,221.23761 C 655.9331,125.89227 612.282,80.731276 547.8777,41.612608 z M 371.5027,417.01886 C 324.2439,440.0755 349.3851,481.76198 369.9714,518.36261 C 377.8604,504.75924 386.3937,491.56216 395.5339,478.83136 C 381.9988,458.21756 371.608,435.01208 371.5027,417.01886 z M 328.4089,498.17511 C 328.33,498.18328 328.2764,498.20808 328.2214,498.23761 C 342.4827,516.03516 350.3001,532.4248 354.6277,546.98761 C 357.7195,540.71781 360.9308,534.53943 364.2839,528.42511 C 349.0507,511.12329 331.2308,497.88268 328.4089,498.17511 z"
         id="path3701"
         sodipodi:nodetypes="ccccccccccccccccccccc" />
    </g>
  </g>
</svg>
